<svg width="707" height="774" viewBox="0 0 707 774" fill="none" xmlns="http://www.w3.org/2000/svg">
<g opacity="0.5" clip-path="url(#clip0_409_350)">
<path d="M732.725 242.397C734.851 243.041 734.401 239.3 732.64 239.816C731.85 240.047 730.094 242.671 729.524 239.481L730.683 239.773C731.254 237.143 728.095 238.911 728.995 235.898C729.396 234.549 731.68 235.685 730.884 234.299C730.86 234.257 729.839 234.153 730.391 233.656C730.599 233.467 731.575 234.148 731.273 232.781C730.799 233.043 729.912 232.489 729.816 232.489V231.322C729.415 230.952 728.71 232.148 728.649 230.447L729.828 229.992C729.608 229.361 729.384 227.92 728.649 228.116C728.637 228.019 728.668 227.915 728.649 227.823C729.062 225.503 730.441 228.043 731.145 226.652C731.431 226.086 730.568 225.704 730.665 225.072C730.689 224.907 732.31 224.537 731.297 223.273C730.094 221.779 727.402 224.233 726.898 223.741C726.837 222.677 726.747 220.716 727.98 220.303C728.739 220.048 729.924 220.539 730.111 219.204C730.305 217.832 729.383 217.971 728.812 217.309C727.9 216.257 728.909 215.924 728.951 215.116C728.982 214.46 728.343 214.102 728.399 213.737C728.491 213.124 729.741 212.419 729.182 210.821C728.659 209.326 726.94 210.717 726.601 210.498C726.315 210.316 725.945 209.258 725.441 209.022C725.325 208.779 727.07 209.187 726.48 207.4C725.83 205.439 723.359 206.792 723.109 206.537C723.005 206.434 723.444 203.749 723.534 203.616C723.946 202.984 725.349 203.586 725.174 202.317C725.077 201.6 724.361 201.758 724.276 201.442C724.233 201.284 725.891 199.316 725.12 198.411C724.974 198.241 722.946 198.276 723.109 197.366C723.274 196.468 724.974 197.833 725.594 196.637C726.249 195.374 723.692 195.544 725.443 194.299L725.735 193.132C725.037 191.996 724.879 190.727 723.111 191.09C723.177 190.817 723.36 189.73 723.433 189.669C723.646 189.499 725.42 190.015 725.116 188.648C724.97 187.998 723.014 187.913 722.662 187.002C722.486 186.54 722.882 186.067 722.766 185.489C722.674 185.046 721.849 184.207 721.958 183.679C722.073 183.144 723.36 183.235 723.907 182.998C725.784 182.189 724.546 179.14 722 180.209C721.55 180.397 721.835 180.932 721.26 180.852C720.227 180.718 720.385 179.273 719.746 179.134C718.969 178.969 719.115 180.501 718.44 180.591C718.519 179.723 718.806 179.035 718.738 178.118C718.683 177.335 717.797 175.53 717.875 175.214C717.96 174.867 718.671 174.867 718.743 174.57C719.21 172.625 716.69 173.689 716.228 173.028C715.834 172.462 716.435 170.951 715.82 170.519C715.396 170.222 713.531 170.161 712.892 170.095C712.637 169.852 713.566 168.065 713.852 167.853C714.191 167.603 715.049 167.629 715.181 167.428C715.316 167.228 715.188 166.462 715.358 166.007C715.625 165.29 716.707 163.795 716.256 163.102C716.026 162.744 715.042 162.562 714.974 161.73C714.92 161.013 716.031 161.379 715.514 159.307L714.64 158.14C714.305 158.067 713.838 158.194 713.473 158.14C713.364 157.43 713.935 157.046 714.056 156.39C715.805 155.735 716.934 154.398 714.348 153.766C714.269 153.189 712.648 151.798 714.93 151.725C714.796 151.051 715.482 149.721 715.513 149.101C715.543 148.427 715.105 147.759 715.221 147.059C715.513 147.041 715.803 147.078 716.095 147.059C716.387 147.041 716.8 147.217 717 146.89C717.213 146.538 718.094 144.131 717.552 143.853V143.561C717.668 143.483 717.746 143.342 717.844 143.269L717.559 143.122L719.886 140.935C720.602 138.438 719.971 139.478 718.136 138.742C717.59 138.523 714.298 137.042 714.183 136.859C713.855 136.342 714.419 135.704 714.638 135.103C715.234 133.474 713.945 132.995 712.597 133.645C712.147 133.372 712.111 134.211 711.722 133.063C713.325 132.971 712.446 130.773 711.14 131.021C711.116 130.972 710.69 130.354 710.557 130.147C711.304 129.6 712.992 129.357 712.16 128.093C711.929 127.742 710.715 127.929 711.851 126.623C712.391 126.003 713.346 126.229 712.853 124.8C712.445 123.616 709.98 124.97 709.105 124.612C709.039 124.581 708.825 124.004 708.528 123.871C708.047 123.659 707.616 124.102 707.257 124.053C707.111 124.034 706.461 122.631 705.605 122.869C705.513 121.266 704.985 121.211 703.856 120.537C702.804 119.912 702.859 119.783 702.106 119.231C701.439 118.739 700.272 118.788 699.798 118.034C699.44 117.468 699.544 116.763 699.343 116.157C699.179 115.676 698.676 115.367 698.603 114.832C698.494 114.007 699.168 112.767 698.9 111.789C699.18 111.965 699.671 112.14 700.067 112.371C698.895 114.674 699.331 117.674 702.108 118.204C702.528 116.235 700.012 114.82 700.941 112.956C700.972 112.901 701.366 112.833 701.47 112.475C701.634 111.897 701.493 111.218 701.524 110.622C705.272 109.851 704.829 105.489 703.334 102.835C702.957 102.16 698.384 97.0517 697.709 96.5048C696.354 95.3923 693.518 95.6794 693.355 95.4603C693.228 95.2836 693.895 94.2629 693.598 93.7653C693.537 93.6566 691.648 92.6528 691.387 92.6053C689.722 92.2825 688.174 94.02 686.716 94.5126C685.259 95.0051 683.279 95.0051 681.681 95.3091C678.56 95.9052 675.054 96.6882 671.919 96.9243C671.087 96.9854 666.349 96.9549 665.948 96.7731C665.517 96.5727 665.298 95.7762 664.642 95.7592C664.133 95.7473 662.061 96.9736 661.064 97.1434C659.084 97.4831 655.274 97.5561 653.325 97.1434C652.153 96.9005 651.569 95.5707 650.196 97.0585C649.4 97.9213 649.765 99.105 648.282 99.2324C646.442 99.3904 643.928 97.2164 641.899 97.2028C641.382 97.2028 639.093 97.8159 638.709 98.1013C638.035 98.6108 638.417 99.5653 637.773 99.7895C636.96 100.075 634.268 99.7589 633.132 99.8133C626.329 100.141 621.609 99.0473 615.03 98.1132C612.899 97.8092 606.411 97.7191 604.879 96.5999C604.186 96.0955 604.528 95.2938 604.412 95.1715C603.908 94.6671 598.265 95.2072 597.135 94.8675V96.3248C597.578 96.3672 598.429 95.5894 598.302 96.464C598.217 97.0602 597.701 98.5174 597.458 99.1305C597.336 99.4277 597.616 99.6281 596.996 99.5313C596.541 98.463 594.184 98.1709 593.959 97.2894C593.728 96.3774 595.114 96.0496 595.107 95.3023C595.107 94.7792 594.367 94.4158 594.16 93.9113C593.851 93.164 593.825 91.9123 593.479 91.3841C592.816 90.3702 590.527 89.4649 589.7 88.7482C588.88 88.0383 586.468 84.4105 585.388 84.6907C584.24 84.9828 584.058 88.7244 583.705 89.0098C582.55 89.9456 580.82 85.9475 580.084 85.2495C578.67 83.9128 575.693 83.6513 573.967 82.3282C573.682 82.1091 570.73 78.8482 570.487 78.5187C569.631 77.3587 569.108 75.9558 567.402 75.1899C567.152 75.0812 564.954 74.7398 564.65 74.7585C563.726 74.8128 563.399 75.6824 562.828 75.8522C561.315 76.3023 560.039 75.2085 559.445 75.3665C558.995 75.482 558.304 76.788 557.799 77.2432C557.186 77.802 556.069 78.1841 555.454 79.12C553.832 74.5886 552.891 69.3575 551.135 64.923C546.925 54.3046 540.275 43.8255 535.975 33.1408C528.358 24.1325 521.646 12.6445 513.754 4.04383C511.774 1.88176 509.247 0.259789 507.055 -1.64751C506.484 -2.14515 505.883 -2.60202 505.305 -3.10474C498.903 -8.6755 492.5 -14.6046 485.77 -19.7253C484.464 -20.7223 481.687 -23.3395 480.096 -23.5348C479.24 -23.6384 475.528 -23.0915 474.678 -22.7994C473.512 -22.3986 472.953 -20.746 472.649 -20.6C472.479 -20.5219 471.866 -20.6968 471.774 -20.6C471.616 -20.4182 472.187 -16.8635 472.066 -15.7952C471.932 -14.6352 471.265 -13.8573 471.192 -12.733C468.483 -11.9313 465.227 -11.3114 462.446 -10.9836C462.233 -9.2037 462.726 -10.1022 463.702 -9.76927C464.037 -9.65378 464.219 -9.19181 464.485 -8.94894C464.455 -8.6687 464.534 -8.34092 464.485 -8.07427C465.232 -8.1473 465.11 -7.63099 465.36 -7.49172C466.307 -6.95672 467.067 -7.02465 467.109 -5.74236C467.006 -5.50628 466.987 -5.00695 466.817 -4.57556C465.73 -5.04941 464.12 -4.64179 463.196 -4.849C462.85 -4.92712 463.081 -5.26851 463.026 -5.45024C463.731 -5.93089 464.332 -7.23016 464.484 -8.07427C463.239 -7.95878 463.116 -6.64081 462.734 -5.74236C462.583 -5.39588 462.188 -4.08472 462.109 -4.02868C461.636 -3.71957 459.594 -4.30211 458.932 -3.85204C458.828 -3.7858 458.057 -1.99909 457.911 -1.65261C457.741 -1.22802 457.85 -0.662449 457.777 -0.485813H458.36C458.675 -1.09894 459.137 -1.65261 459.392 -2.23516C459.543 -2.57484 459.477 -3.32893 459.538 -3.39008C459.623 -3.48179 462.114 -3.66352 461.853 -2.97736L457.195 10.5929C456.283 11.2315 455.196 12.2998 454.279 12.9248C452.074 14.4312 449.766 15.7186 447.572 17.2981C447.457 17.3831 447.395 17.7839 447.28 17.8807C447.237 17.9164 446.533 18.3851 446.405 18.4632C445.84 18.8148 444.091 18.8454 444.074 20.2126C444.024 20.1634 443.849 20.2619 443.781 20.2126C443.216 19.8237 443.229 19.5502 442.907 19.9205C442.239 20.6983 441.321 21.2028 440.441 21.6885C439.359 22.2847 438.753 22.6668 437.659 23.4192C436.912 22.4596 436.11 20.3943 435.327 19.6284C435.205 19.5061 434.908 19.4517 434.745 19.3362C434.599 19.433 434.125 19.4449 433.779 19.6708C426.914 24.1053 417.937 30.9635 410.926 34.4503C409.451 35.1857 407.525 35.6833 405.879 35.6714L405.32 52.9C406.687 53.2346 409.743 50.5308 410.405 50.5257C410.86 50.5257 412.616 53.1871 412.871 53.7458C413.053 54.128 413.187 54.4745 413.163 54.9126C411.796 55.1012 410.733 56.6263 409.452 56.8862C408.201 57.1409 406.074 56.3274 406.458 57.8271C405.171 57.9052 405.468 56.2476 404.714 55.7856C404.981 58.4097 401.477 57.4195 399.599 57.5231C397.411 57.6386 395.487 57.9052 393.203 57.8271C391.946 57.7846 391.6 56.8488 391.01 58.4096C390.968 58.5251 390.822 58.6219 390.718 58.7018C390.494 58.143 390.318 57.5231 390.129 56.9524C389.333 56.679 389.613 57.4874 389.552 57.535C389.328 57.7048 387.177 57.5961 386.775 58.1124C386.355 58.6474 386.344 60.5904 386.344 61.3258C385.669 61.2901 384.971 61.3751 384.302 61.3258C384.205 61.319 384.109 61.3326 384.01 61.3258C383.76 61.3071 383.36 61.0524 382.843 61.0337C381.21 60.9793 379.206 60.9182 377.596 61.0337C377.322 61.0524 377.03 60.9488 376.757 61.0642C376.387 61.4158 376.21 69.8365 376.137 71.2394C374.503 71.6215 374.133 71.3905 372.931 70.3647C372.548 70.0369 371.558 69.028 371.181 68.6153C370.009 67.3398 363.26 58.1311 362.579 58.1243C361.729 58.7867 360.969 64.2539 360.66 64.5086C360.448 64.6785 359.652 64.4356 359.519 64.5392C358.838 65.0555 360.363 65.0249 360.102 65.5531C359.573 66.6044 357.763 65.1336 357.478 66.1493C357.254 66.9577 360.387 68.9856 358.492 70.6619C357.629 70.6195 358.211 68.9618 357.999 68.2434C357.367 66.0864 355.253 68.5525 354.689 68.6323C353.414 68.809 351.828 67.4231 351.483 66.3055C351.259 65.582 351.537 64.6479 351.094 64.0704C350.821 63.7188 350.092 63.6883 349.745 63.3775C349.144 62.8493 348.932 61.8099 347.857 61.6213C347.018 57.7456 347.565 57.8373 348.112 54.1501C348.258 53.1412 347.954 51.2713 348.428 50.4441C348.609 50.1214 349.083 50.3219 349.236 50.1894C349.425 50.0314 349.272 49.7087 349.309 49.6731C349.401 49.5695 349.509 49.4846 349.601 49.381C350.999 47.7709 351.52 48.5793 353.112 48.0817C355.189 47.4312 352.072 45.0687 351.35 44.1329C349.262 41.4239 345.264 37.1219 343.71 34.4248C341.48 30.5678 339.16 23.46 337.356 19.056C334.648 12.4475 332.175 5.72184 329.454 -0.886635C328.877 -2.00418 327.651 -0.704899 327.031 -0.752453C326.866 -0.764343 326.623 -1.59657 326.102 -1.90738C325.458 -2.28952 324.881 -2.0891 324.529 -2.23006C323.145 -2.76506 321.741 -3.60238 320.156 -3.68729C319.367 -5.491 319.288 -4.53141 318.699 -4.56198C317.678 -4.61123 312.308 -7.86706 311.118 -8.64493C310.437 -9.08821 309.751 -9.62831 309.077 -10.1022C307.898 -10.9276 306.75 -11.8753 305.578 -12.7262C303.676 -14.1053 302.827 -15.0462 300.621 -16.2249C300.42 -16.3285 300.239 -16.4185 300.038 -16.517C298.447 -17.2949 297.341 -17.7144 295.665 -18.2664C294.093 -18.7895 292.883 -19.0629 291.292 -19.4332C291.189 -19.457 290.983 -19.6642 290.71 -19.7253C290.042 -19.8714 288.996 -19.8408 288.086 -20.0174C287.011 -20.2246 285.959 -20.4115 284.879 -20.6C283.658 -20.8123 281.982 -21.7124 280.797 -20.8921C280.761 -20.9464 280.014 -20.8564 280.068 -21.7668C279.91 -21.991 279.071 -20.9583 279.047 -20.8921C279.399 -22.0589 277.881 -22.0283 277.152 -22.0759C276.108 -22.1421 274.54 -22.385 273.216 -22.6414C271.801 -22.9149 270.3 -23.2427 268.842 -23.5161C268.606 -23.5586 268.302 -23.7471 267.968 -23.8082C266.528 -24.0749 264.962 -24.1428 263.595 -24.3908C263.298 -24.4452 262.897 -24.598 262.428 -24.6829C260.983 -24.9445 259.512 -25.2961 258.055 -25.5576C242.334 -28.3821 226.596 -31.1827 210.822 -33.7218C210.646 -33.8679 210.572 -34.0683 210.24 -34.0139C209.881 -34.0632 209.396 -33.9409 209.073 -34.0139C206.741 -34.5489 204.426 -35.0398 202.076 -35.4712C201.638 -35.5493 201.055 -35.3931 200.619 -35.4712C200.327 -35.5255 199.933 -35.6784 199.452 -35.7633C198.87 -35.8669 198.285 -35.9518 197.703 -36.0554C196.354 -36.2915 194.987 -36.694 193.62 -36.9301C192.18 -37.1798 190.716 -37.4957 189.247 -37.5127C188.512 -38.029 186.447 -38.1869 185.456 -38.3873C185.195 -38.4417 184.843 -38.3381 184.582 -38.3873C182.055 -38.885 179.54 -39.3894 177.001 -39.8446C176.734 -39.8938 176.393 -39.7953 176.126 -39.8446C173.703 -40.2759 171.279 -40.901 168.837 -41.3018C168.17 -41.4105 167.477 -41.4835 166.796 -41.5939C164.549 -41.9523 162.623 -42.2019 160.381 -42.4686C159.075 -42.6265 157.508 -42.8269 156.299 -43.3433H154.841C153.658 -43.131 152.394 -41.5939 151.635 -41.3018C151.234 -41.1438 150.56 -41.4173 149.964 -40.9247C148.67 -39.8564 146.623 -34.2483 145.365 -33.1308C144.563 -32.4141 143.081 -32.876 141.586 -30.7853C141.155 -30.184 138.524 -24.9224 138.567 -24.5776C138.579 -24.4689 138.979 -23.8966 139.09 -23.8066C137.522 -21.0721 136.284 -18.0728 134.717 -15.3502C134.285 -14.6029 134.17 -14.2751 133.842 -13.6009C133.835 -13.5822 133.569 -13.3155 133.55 -13.3087C131.388 -12.2829 130.573 -10.9514 128.885 -9.22578C126.297 -8.20504 123.595 -10.3926 121.013 -10.1005C119.804 -9.96629 118.863 -8.82496 118.152 -7.85857C117.089 -6.42512 109.434 6.65937 109.387 7.54763C109.368 7.87033 109.653 8.17944 109.648 8.27115C109.594 9.41248 108.276 10.1852 108.191 12.062C108.13 13.453 109.09 15.2397 109.005 15.6711C108.762 16.9109 105.037 18.076 106.15 19.6436C106.028 19.6318 105.53 19.9663 105.275 19.9358V20.8104C106.065 20.6712 106.739 22.7721 106.732 23.4345C106.714 26.4542 106.605 28.3123 107.036 31.4475C107.091 31.867 106.763 32.3103 107.456 32.1829L120.728 18.1864C120.85 18.3087 121.147 18.363 121.31 18.4785C118.644 21.2367 116.063 24.7168 113.439 27.5174C113.317 27.6516 113.087 27.8571 112.856 28.1C112.826 28.1357 112.51 28.0643 112.383 28.1968C111.685 28.9441 107.486 33.202 107.378 33.5484C106.85 35.2927 108.356 39.1922 107.901 41.215C108.405 41.3492 108.483 41.0078 108.775 40.7836C110.494 39.4657 115.949 32.8691 116.939 32.4734C117.073 32.419 117.347 32.509 117.522 32.4734C115.935 34.1259 114.235 36.4952 112.564 38.3057C112.473 38.4093 112.364 38.4942 112.272 38.5978C110.966 40.0262 109.321 41.2286 108.232 42.8931L109.071 50.2624C109.575 50.3898 109.653 50.0501 109.946 49.8242C112.26 48.0443 113.887 44.9702 116.36 43.2633C116.402 43.355 116.584 43.445 116.652 43.5554C114.957 45.3235 112.661 47.5823 111.119 49.5389C110.912 49.8005 110.013 50.9299 110.238 51.1303C112.715 50.4679 115.103 51.6398 117.606 51.6704C121.185 47.9101 125.053 44.3622 128.316 40.3472C128.352 40.3964 128.796 40.444 128.898 40.6393C126.815 42.82 124.829 45.7294 122.776 47.9288C121.635 49.1551 119.86 50.383 118.839 51.7196C118.615 52.0118 118.274 52.0899 118.408 52.5943C121.385 52.703 124.271 53.4452 127.204 53.8579C127.744 53.9361 128.144 54.4286 128.029 53.469C128.97 53.7492 133.514 54.5016 134.236 54.2825C135.129 54.0091 138.968 49.5627 139.691 48.5114C139.842 48.6761 140.201 48.7661 140.274 49.0939C139.519 49.8837 138.67 51.5668 137.497 52.2954L135.316 55.2116C137.539 54.5611 139.987 55.879 142.101 55.4357C145.01 54.8277 149.208 48.4315 151.644 46.4631C151.766 46.5854 152.063 46.6397 152.226 46.7552C152.165 46.8164 152.165 47.2478 151.941 47.4787C150.55 48.9309 148.806 50.2488 147.853 52.005C146.899 52.6368 145.946 53.0138 145.521 54.3369C146.141 54.8175 149.798 51.932 149.894 50.8382C151.012 50.1639 156.309 46.8656 157.063 46.7688C158.089 46.6295 157.895 47.7403 158.326 48.688C158.404 48.8646 158.26 49.3079 158.781 49.0888C159.055 48.9733 162.881 45.0857 162.966 44.8004C163.221 43.9138 162.365 41.7874 162.723 40.6393C162.778 40.7242 163.105 40.7242 163.239 41.1318C163.355 41.4715 163.859 44.9277 163.817 45.1281C163.671 45.8822 160.349 48.6761 159.783 49.527C159.607 49.7937 159.432 49.9822 159.552 50.3405C160.95 52.7879 161.587 56.5312 163.058 58.8207C164.588 61.2137 168.767 64.5256 170.882 67.1802C171.094 67.4468 171.356 68.2485 171.763 68.7784C172.487 69.7074 173.439 70.8385 174.375 71.5553C174.345 69.794 175.195 67.7169 174.667 66.0151C174.995 66.4703 175.377 66.3972 175.523 67.3449C175.785 69.0399 174.757 71.0933 175.396 72.7204C175.469 72.9021 175.803 72.9565 175.827 73.0125C175.905 73.1891 176.101 73.4507 176.119 73.5951C176.216 74.3491 175.785 75.6179 175.549 76.377C173.63 82.5253 170.112 88.648 168.253 94.8811C169.031 95.0323 168.757 94.7164 168.963 94.2986C171.094 89.9558 175.681 78.6444 176.417 74.1793C177.249 74.0095 177.055 74.6464 176.999 75.1882C176.714 78.0126 171.004 91.4385 169.503 94.8098C169.314 95.2293 168.805 95.0594 168.81 95.5927C168.822 96.4674 171.033 104.092 171.5 104.893C172.393 106.43 175.029 108.144 176.238 109.486C178.758 112.286 177.952 119.552 178.473 123.287C178.709 124.399 179.676 124.86 180.503 125.486C182.131 126.726 183.765 127.096 184.876 128.985C186.102 131.069 186.886 136.225 187.408 138.844C188.016 141.881 188.926 145.004 188.95 148.084C186.246 159.716 180.537 171.003 180.197 183.062C180.161 184.434 180.531 185.566 180.506 186.853C180.445 190.158 179.236 194.209 179.03 197.648C179.006 198.086 179.049 198.535 179.042 198.966C179.334 198.978 179.625 198.959 179.917 198.966C182.432 199.027 185.037 199.397 187.498 199.548C187.79 199.567 188.08 199.53 188.372 199.548C190.978 199.713 193.639 199.683 196.244 199.841C196.353 199.847 196.833 200.095 197.411 200.133C199.731 200.272 202.081 200.284 204.408 200.425C205.124 200.467 206.03 200.401 206.449 200.425C209.061 200.576 211.709 200.856 214.321 201.007C214.71 201.031 215.098 200.984 215.487 201.007C218.203 201.165 220.942 201.432 223.651 201.59C224.83 201.656 226.013 201.814 227.149 201.882C228.984 201.991 230.898 202.071 232.689 202.174C233.078 202.198 233.467 202.15 233.856 202.174C236.461 202.325 239.122 202.313 241.728 202.466C242.037 202.485 242.578 202.721 243.185 202.758C245.79 202.91 248.444 202.898 251.056 203.051C251.464 203.074 251.792 203.044 251.931 203.051C253.286 203.129 254.646 203.263 256.014 203.343C256.615 203.378 257.296 203.592 258.055 203.635C259.5 203.72 260.983 203.55 262.428 203.635C262.537 203.642 263.017 203.896 263.595 203.927C265.04 204.012 266.523 203.842 267.968 203.927C268.017 203.927 268.369 204.194 268.842 204.219C270.288 204.304 271.77 204.134 273.216 204.219C273.265 204.219 273.616 204.486 274.09 204.511C275.639 204.603 277.261 204.718 278.755 204.803C279.047 204.822 279.338 204.785 279.63 204.803C281.087 204.888 282.577 205.011 284.003 205.095C284.295 205.114 284.586 205.077 284.878 205.095C286.433 205.187 287.994 205.296 289.543 205.388C289.835 205.406 290.125 205.369 290.418 205.388C291.881 205.473 293.339 205.588 294.791 205.68C296.735 205.802 298.678 205.861 300.623 205.972C300.816 205.984 301.011 205.96 301.205 205.972C302.657 206.05 304.14 206.069 305.578 206.264C305.863 206.3 308.61 206.245 308.784 206.264C308.973 206.288 309.173 206.245 309.367 206.264C310.642 206.379 311.875 206.471 313.158 206.556C313.438 206.575 313.62 206.549 313.74 206.556C313.837 206.563 313.934 206.549 314.032 206.556C315.46 206.648 317.78 207.139 319.134 207.139H323.799C325.98 207.139 328.901 207.582 331.234 207.721H331.526C331.72 207.733 331.915 207.709 332.109 207.721C342.017 208.304 351.941 208.876 361.849 209.471C363.945 209.622 368.056 209.713 369.138 209.763C370.28 209.817 371.288 210.152 372.637 210.055C372.825 210.043 373.075 210.097 373.219 210.055C373.365 210.979 375.315 212.405 376.128 213.122C388.976 224.403 402.387 235.337 415.496 246.21C415.588 246.288 415.673 246.404 415.789 246.502C416.408 247.012 417.283 247.87 418.12 248.544C418.224 248.629 418.302 248.751 418.412 248.836C419.008 249.291 418.764 249.51 419.87 250.003C420.35 250.647 420.671 251.285 421.619 251.17C422.651 252.865 422.232 252.136 423.66 252.919C423.806 252.997 423.861 253.119 423.952 253.211C423.928 253.503 424.049 253.619 424.244 253.794C427.245 256.571 430.416 259.127 433.575 261.666C433.714 261.775 433.94 262.055 434.157 262.248C434.407 262.467 434.485 262.873 435.032 262.831C435.22 263.791 437.443 265.054 438.24 265.747C444.016 270.771 449.928 275.656 455.734 280.618C456.5 281.274 457.478 281.821 457.775 282.075C458.334 282.556 459.173 283.273 459.817 283.825C460.156 284.117 460.861 284.973 461.566 285.574C464.159 287.786 466.82 290.051 469.437 292.281C469.826 292.616 470.185 292.755 470.312 292.864C476.102 297.791 481.847 303.397 487.898 308.233L489.848 308.9C489.848 308.9 492.636 310.529 494.805 310.942C494.908 311.02 494.993 311.172 495.097 311.234H499.762C504.348 310.395 506.608 309.089 510.55 306.86C512.256 305.894 515.208 304.333 516.66 303.197C517.068 302.881 517.401 302.716 516.964 302.195C517.978 301.624 519.442 300.967 519.885 299.863L519.734 301.023C524.715 298.38 529.295 295.009 534.081 292.045C535.375 291.243 536.705 290.435 537.963 289.657C539.361 288.794 540.667 287.943 542.046 287.033H542.338C542.18 287.865 542.751 287.695 543.293 287.556C544.702 287.179 546.239 285.989 547.927 285.479C558.29 282.357 572.515 280.578 583.45 278.578C584.028 278.475 584.617 278.39 585.2 278.286C585.594 278.213 585.971 278.067 586.366 277.994C587.295 277.824 588.224 277.551 588.99 277.412C589.525 277.315 590.223 277.485 590.848 277.376C594.943 276.647 599.019 275.747 603.13 275.073C603.003 276.082 603.713 276.495 603.865 276.829C604.339 277.869 604.983 279.392 604.94 280.535C604.917 281.259 604.297 281.763 604.175 282.534C603.713 285.389 604.613 286.44 606.477 288.36C608.938 290.887 612.066 293.146 614.653 295.491C614.714 295.546 614.714 296.026 614.933 296.22C618.068 298.99 619.459 299.634 623.832 299.282C626.451 299.07 626.055 298.924 628.818 299.258C630.726 299.489 632.67 299.471 634.479 300.157C634.576 301.274 634.691 302.934 634.898 303.966C635.002 304.471 635.408 305.6 635.938 305.697L636.697 304.871L639.436 303.947C640.238 303.346 640.754 302.877 641.477 302.198C641.6 302.083 641.732 301.962 641.86 301.847C643.062 300.918 645.37 300.467 645.558 298.992C645.839 299.015 645.966 298.815 646.141 298.699C649.088 296.755 652.865 293.487 656.346 293.451C657.914 293.433 660.368 294.307 661.886 294.909C662.56 295.175 663.788 295.748 664.51 296.075C666.539 296.993 668.604 298.499 670.785 299.277C671.107 299.812 670.924 302.752 670.924 303.657C670.924 305.783 670.681 307.733 670.632 309.78C670.613 310.558 670.656 311.336 670.632 312.112C670.583 313.552 670.693 315.155 670.632 316.485C670.286 324.456 669.793 332.42 669.465 340.395C669.458 340.56 669.199 340.973 669.173 341.404C669.1 342.717 669.228 344.047 669.173 345.358C669.107 345.339 668.9 345.789 668.881 345.94H671.213V345.648C676.024 344.154 680.774 342.428 685.499 340.691C685.779 340.587 686.069 340.509 686.373 340.399C687.661 339.918 688.724 339.274 689.581 338.941C701.305 334.41 712.804 328.802 724.278 323.488C725.298 323.014 727.047 322.504 727.776 321.738C728.056 321.446 728.134 321.288 728.068 320.864C729.301 320.456 728.561 320.225 728.943 319.406C728.978 319.328 728.907 319.194 728.943 319.114C729.501 317.924 730.845 316.495 731.519 315.42C731.811 314.958 732.186 314.357 732.102 313.786C730.43 310.415 728.742 307.044 726.963 303.733C726.769 303.368 726.373 303.163 726.324 303.078C725.352 301.286 724.351 299.341 723.408 297.538C723.128 297.003 723.901 297.179 722.826 296.663C722.297 295.479 721.581 294.355 721.076 293.164C720.456 291.694 719.879 290.114 719.327 288.791C719.249 288.597 719.145 288.383 719.035 288.208C719.473 287.583 718.525 286.695 718.457 286.004C718.318 284.424 719.49 284.764 719.836 284.346C720.001 284.146 719.91 283.575 720.183 283.392C720.341 283.283 721.725 283.095 722.243 282.967L723.118 282.092C722.613 281.595 721.696 279.219 722.394 278.587C723.287 277.773 723.719 279.061 723.118 276.552C722.983 276 722.358 275.569 723.7 275.385C724.198 273.325 723.858 273.527 722.826 272.177C722.559 271.826 722.364 271.218 722.036 270.999C721.555 270.676 718.872 269.959 718.768 269.82C718.592 269.57 719.291 266.63 719.339 265.92C719.442 264.407 718.773 263.928 719.619 262.846C721.241 260.774 722.165 261.031 721.946 257.749L721.078 252.641C721.175 252.634 721.271 252.647 721.37 252.641L722.567 258.916C722.949 259.682 721 261.559 721.37 261.972C721.655 262.287 723.357 260.507 723.544 260.21C723.957 259.555 723.829 259.159 723.994 258.765C724.85 258.911 725.088 257.41 725.161 256.723C725.427 256.389 725.786 255.575 725.938 255.545C726.752 255.356 729.534 255.533 730.142 255.137C730.519 254.894 730.323 254.256 730.408 254.098C730.852 253.32 731.563 252.7 732.158 252.056C732.832 252.676 734.253 251.978 735.073 251.764V245.057C734.618 243.423 732.388 244.826 732.742 242.433L732.718 242.403L732.725 242.397Z" fill="#E8EBED"/>
<path d="M637.349 421.499C637.326 420.551 637.489 419.385 637.288 418.498C636.923 416.876 634.719 415.188 635.636 412.642C635.843 412.071 636.595 412.272 636.723 412.137C637.027 411.81 635.867 405.819 635.598 404.884C635.568 403.596 635.047 398.881 634.257 398.207C633.849 397.856 632.671 397.472 632.1 397.302C632.088 396.239 632.112 395.157 632.1 394.095H627.727V393.221C629.172 391.391 629.653 387.827 629.761 385.493C629.901 382.619 629.184 382.171 627.678 379.99C627.477 379.705 627.003 379.582 626.924 379.443C626.759 379.139 626.122 375.914 625.957 375.744C625.708 375.494 624.099 375.902 623.637 376.024L623.93 377.769C623.425 376.84 623.578 375.995 622.763 376.019C620.74 376.08 620.747 376.5 621.306 378.351H621.014C620.856 377.646 620.363 376.814 620.285 376.012L619.976 375.763L576.563 378.941C572.767 379.591 568.812 379.9 565.046 380.69L580.584 372.762C581.666 372.21 583.767 372.239 584.691 371.62C585.31 371.208 585.242 370.503 585.523 370.265C585.839 369.998 587.364 369.683 588.055 369.153C589.604 367.969 590.2 365.673 589.597 363.85C589.123 362.422 584.567 355.09 583.475 353.645C582.18 351.931 581.209 351.415 578.955 351.883C578.038 352.077 572.329 355.073 571.447 355.747C568.555 357.964 562.688 369.312 560.811 373.096C558.885 376.979 558.187 378.964 562.713 381.267C562.355 381.364 562.161 381.449 561.838 381.559C558.51 382.714 555.551 384.797 552.508 386.225C551.499 386.699 550.99 386.96 550.176 387.392C543.847 390.751 535.629 392.701 529.189 396.139C527.275 395.671 525.568 396.848 523.357 396.721C523.326 396.721 523.053 396.223 522.822 396.466C522.688 396.606 522.822 396.976 522.773 397.013C522.723 397.056 521.934 397.049 521.502 397.341C520.798 397.808 519.831 398.683 519.273 399.345C518.659 399.121 515.421 398.944 514.315 398.763C512.354 398.44 508.867 397.608 507.026 397.888C505.812 397.183 504.287 397.336 502.943 397.305C503.302 393.588 504.414 389.95 505.204 386.291C505.338 385.659 505.173 384.966 505.277 384.476C505.654 382.684 506.078 380.782 506.444 378.935C507.191 375.163 508.042 371.172 508.775 367.272L508.842 366.992C508.908 366.749 509.006 366.452 509.061 366.106C509.079 366.014 509.049 365.912 509.061 365.814L509.643 364.064C509.874 363.741 509.995 363.956 510.226 363.19C510.419 362.551 510.565 359.375 510.822 359.12C511.199 359.09 511.6 359.066 511.97 359.108C512.067 359.12 512.163 359.101 512.262 359.108C512.597 359.139 512.821 359.563 513.799 359.344C514.534 359.175 514.685 358.621 514.886 358.524C515.086 358.427 515.268 358.342 515.468 358.232C516.149 357.867 516.319 357.758 516.925 357.357C517.484 356.992 518.286 356.877 518.839 356.209C520.881 353.736 522.781 345.056 523.924 341.611C524.04 341.26 524.313 340.743 524.507 340.154C524.841 339.145 525.053 337.882 525.381 336.948C525.697 336.035 526.73 334.366 527.13 333.157C527.307 333.192 527.574 333.107 527.713 333.157C529.9 333.977 531.181 334.493 533.545 334.906C533.581 334.913 533.606 335.186 533.691 335.191C533.873 335.142 533.806 335.022 533.837 334.906C533.861 334.821 533.825 334.712 533.837 334.614C534.681 333.49 534.761 331.613 535.004 330.241C535.107 329.663 535.374 329.104 535.296 328.491C536.116 327.246 536.135 325.539 536.463 324.118C536.505 323.941 536.42 323.705 536.463 323.535C537.634 318.499 538.794 313.372 539.961 308.374C540.034 308.051 540.369 307.39 540.544 306.624C542.069 300.058 543.707 293.514 545.214 286.942C545.153 286.06 542.682 286.043 541.709 285.921C541.52 285.897 541.315 285.939 541.126 285.921C537.847 285.562 534.504 285.27 531.213 285.046C531.02 285.034 530.824 285.058 530.631 285.046C529.325 284.961 526.743 283.952 527.132 286.213C526.555 286.249 527.156 285.489 526.439 285.654C518.719 289.742 510.987 293.849 503.229 297.876C502.779 298.107 502.493 298.385 502.354 298.458C499.669 299.849 497.161 301.264 494.19 301.957C493.717 302.066 492.727 302.169 492.149 302.249C491.888 302.285 491.652 302.529 491.567 302.541C491.178 302.596 490.515 302.577 490.109 302.541C489.921 302.523 489.709 302.572 489.527 302.541C488.725 302.414 486.259 301.587 485.444 301.228C481.319 299.425 470.696 289.681 466.79 286.211C466.439 285.895 466.875 285.902 465.916 285.337C465.849 285.294 465.715 285.372 465.624 285.337C465.284 285.202 464.093 284.832 464.014 284.785C463.401 284.396 459.014 280.496 458.917 280.088C458.825 279.706 459.082 279.075 458.856 278.691C458.795 278.587 457.13 277.215 457.022 277.172C456.444 276.936 456.529 277.731 456.59 278.047C455.393 276.771 453.396 275.708 452.217 274.548C451.835 274.171 451.434 273.478 451.051 273.091C450.996 273.037 451.015 272.61 450.777 272.356C450.426 271.973 448.007 270.017 447.656 269.963C447.431 269.927 446.897 270.071 446.677 270.175C446.781 269.81 447.09 269.045 446.932 268.765C442.868 265.661 439.005 262.296 435.02 259.095C434.358 258.56 433.665 258.536 433.271 258.22C432.858 257.885 432.439 257.253 431.814 256.763C431.637 256.623 431.036 256.496 430.647 256.18C430.459 256.029 429.808 255.226 429.19 254.723C428.735 254.353 428.164 253.909 427.733 253.556C426.767 252.759 425.753 251.965 424.817 251.224C424.567 251.024 424.258 250.616 423.942 250.349C423.572 250.034 423.226 249.694 422.776 249.475C422.151 248.765 416.816 244.104 416.18 244.02C415.803 243.97 415.439 244.324 414.916 244.093C414.473 243.899 413.075 242.258 412.571 242.185L413.026 241.013C407.455 236.597 402.123 231.89 396.68 227.328C396.128 226.861 395.15 226.446 394.791 226.156C391.597 223.477 388.207 220.469 384.878 217.699C384.44 217.334 383.997 217.061 383.712 216.825C383.245 216.436 382.691 216.016 382.255 215.658C382.097 215.531 381.927 215.288 381.672 215.075C381.247 214.724 380.804 214.109 380.215 213.618C380.008 213.441 379.722 213.399 379.632 213.326C379.05 212.84 378.466 212.336 377.883 211.869C377.112 211.249 376.844 210.69 375.842 210.119C374.536 209.379 374.772 209.584 373.218 209.537C372.301 209.506 372.204 208.674 371.469 210.412C371.457 210.119 371.481 209.829 371.469 209.537H369.72C369.611 210.339 369.962 211.093 370.012 211.869H369.429C369.41 210.994 369.441 210.113 369.429 209.245C368.877 209.172 368.694 209.202 368.262 209.537C368.159 209.615 368.001 209.683 367.97 209.829H366.804L366.511 209.537L366.219 208.954C357.101 208.62 347.947 208.037 338.817 207.497H338.525C338.332 207.485 338.136 207.509 337.943 207.497C336.029 207.382 333.466 206.915 331.674 206.915H327.009C325.776 206.915 323.614 206.707 322.198 206.622C322.004 206.611 321.809 206.634 321.615 206.622C320.352 206.549 318.888 206.41 317.533 206.33C317.339 206.318 317.144 206.342 316.95 206.33C316.757 206.318 316.561 206.342 316.368 206.33H316.076C315.863 206.318 315.255 206.076 314.619 206.038C313.167 205.953 311.709 205.831 310.245 205.746C310.052 205.734 309.857 205.758 309.663 205.746C307.919 205.642 306.164 205.558 304.415 205.454C303.048 205.376 301.7 205.242 300.333 205.162C300.04 205.143 299.75 205.18 299.458 205.162C297.902 205.07 296.348 204.961 294.793 204.87H294.501C292.945 204.778 291.391 204.669 289.835 204.578H289.543C288.079 204.493 286.634 204.37 285.17 204.285C284.977 204.274 284.781 204.297 284.588 204.285C283.032 204.194 281.478 204.085 279.923 203.993H279.63C278.263 203.915 276.915 203.781 275.548 203.701C275.256 203.682 274.965 203.72 274.673 203.701C273.209 203.616 271.757 203.494 270.3 203.409C269.723 203.373 269.128 203.445 268.551 203.409C266.243 203.275 263.862 202.959 261.554 202.826C261.262 202.808 260.971 202.845 260.679 202.826C258.261 202.687 255.807 202.675 253.39 202.534C253.001 202.511 252.612 202.558 252.223 202.534C249.897 202.4 247.351 202.091 244.934 201.952C244.545 201.928 244.157 201.976 243.768 201.952C241.252 201.806 238.702 201.514 236.186 201.369C235.993 201.357 235.798 201.381 235.604 201.369C233.089 201.223 230.531 201.223 228.023 201.077C227.731 201.058 227.44 201.096 227.148 201.077C224.725 200.938 222.089 200.639 219.567 200.495C219.275 200.476 218.985 200.513 218.692 200.495C216.184 200.349 213.626 200.056 211.111 199.912C210.819 199.893 210.529 199.931 210.237 199.912C209.848 199.888 209.459 199.936 209.07 199.912C208.589 199.881 208.098 199.943 207.613 199.912C206.095 199.827 204.496 199.718 202.948 199.62C202.898 199.62 202.547 199.353 202.073 199.328C200.767 199.262 199.109 199.625 197.99 199.036H196.824C196.119 203.774 195.968 209.022 194.995 213.681C194.308 216.967 192.547 220.131 192.449 223.528C192.425 223.606 192.194 223.71 192.157 223.82C192.029 224.221 192.017 224.792 191.865 225.278C191.16 227.555 190.377 230.028 189.842 232.148C189.283 234.347 189.653 235.446 189.533 237.233C189.448 238.527 188.779 240.1 188.665 241.467C188.514 243.204 188.762 245.1 188.665 246.856C188.665 246.82 188.368 246.533 188.361 246.151C188.33 244.451 188.531 242.707 188.227 241.024L186.325 249.037C186.525 249.437 187.103 249.103 187.364 248.909C188.335 248.211 187.644 247.099 188.658 247.141C188.75 249.31 187.541 248.957 187.06 249.772C186.737 250.319 186.994 251.139 186.532 251.729C186.065 252.318 183.112 253.605 182.262 254.305C180.89 255.441 180.117 259.062 179.62 260.847L179.17 261.413C179.012 261.668 179.121 262.111 179.036 262.306C177.159 266.637 174.479 273.545 173.35 278.052C172.232 282.522 172.153 287.753 171.461 292.339C172.676 291.938 179.097 288.385 179.722 288.572L184.873 294.52C187.551 294.885 190.328 295.175 193.031 295.255C195.151 295.316 196.992 294.836 199.446 295.255C200.235 295.389 206.431 297.066 206.68 297.351C206.905 297.606 206.888 299.185 207.027 299.629C207.932 302.477 210.817 304.391 210.817 307.647V313.041C209.554 313.053 208.279 313.206 207.027 313.333C201.682 313.88 194.818 314.087 189.709 315.106C186.916 315.665 183.866 318.812 181.223 320.033C180.773 320.769 181.332 323.185 181.053 323.508C180.865 323.727 175.799 324.984 175.586 325.33C175.259 325.854 175.478 328.775 174.905 329.753C174.396 330.635 172.317 331.017 171.753 331.988C174.056 332.608 177.579 332.505 179.717 333.209C179.941 333.282 180.117 333.386 180.191 333.629C180.464 334.534 176.522 343.495 176.138 345.188L168.758 350.436C167.075 351.372 165.872 347.393 164.616 347.15L147.85 346.858L147.267 353.862C153.354 353.796 159.398 353.188 165.471 353.291L173.216 357.502C173.392 357.702 173.701 358.753 173.793 359.112C174.017 359.98 174.303 361.917 174.036 362.707C173.902 363.096 171.509 364.438 170.877 364.942C170.811 364.997 170.342 364.772 170.281 365.124C170.281 365.938 170.317 366.758 170.293 367.566C169.418 367.943 168.155 368.004 167.353 368.623C167.202 369.358 168.732 372.086 169.182 372.923C169.401 373.331 169.298 373.847 170.002 373.689V374.564C170.002 375.535 170.014 376.508 170.002 377.48V377.772C169.833 377.808 169.517 377.718 169.42 377.772C168.922 378.057 168.795 378.896 168.041 379.163C165.24 380.141 160.551 379.63 157.654 381.021L135.592 398.924L127.148 398.474C126.886 399.184 127.471 402.307 127.318 402.562C127.044 403.012 123.345 403.977 123.077 403.722C123.023 401.395 121.151 399.342 121.752 397.01C121.934 396.312 123.884 393.316 123.636 392.964L118.12 390.024L115.781 396.731L110.168 395.906C108.473 397.613 106.086 399.011 104.404 400.656C103.869 401.184 102.759 403.056 102.375 403.292C101.111 404.063 97.3446 402.526 96.0998 404.306L84.6261 419.39C84.3901 420.288 86.7999 422.421 86.6369 423.551C86.3142 423.933 80.3312 424.079 79.4684 424.692C78.5751 425.331 75.4418 431.97 74.9425 432.262C73.7027 432.979 72.0945 428.787 70.8122 429.121C70.3622 429.244 69.1411 430.816 68.5467 431.26C63.9902 434.638 57.2242 437.941 52.0546 440.421C48.58 442.092 42.8584 445.214 39.1103 444.995L25.1334 441.635L32.9625 452.897L33.3089 454.307C31.0621 471.979 28.3703 489.588 26.0012 507.241L18.42 512.781V514.239C21.1101 513.097 23.0479 510.32 25.7091 508.99C25.5868 509.938 25.3389 510.952 25.417 511.907C24.6273 512.484 19.8279 515.533 20.7518 516.572C20.959 516.803 21.9185 516.001 22.1801 515.813C23.6083 514.799 24.6697 513.371 25.7091 512.491C37.0673 502.82 51.9629 490.148 65.641 484.5C78.6889 479.111 93.3027 476.239 107.48 476.906C111.834 477.113 116.257 477.835 120.545 478.097C122.403 478.205 124.894 479.415 126.851 479.542L126.553 480.119L128.011 479.834L127.433 480.411L129.182 480.235C138.919 483.545 148.827 486.341 158.619 489.45L158.911 489.742C159.069 489.792 159.336 489.693 159.493 489.742C173.391 494.158 187.283 498.734 201.175 503.155C204.855 504.327 208.598 505.5 212.254 506.653C223.037 510.067 233.794 513.554 244.612 516.859C246.38 517.399 247.667 518.057 249.569 518.316C249.788 518.62 250.104 518.778 250.444 518.899C250.595 518.953 250.875 518.845 251.026 518.899C260.762 522.416 270.847 524.847 280.456 528.678C305.847 538.799 332.318 550.535 357.132 562.052C365.672 566.019 371.656 568.922 381.033 571.091C383.178 571.588 385.322 571.845 387.448 572.258C387.648 572.293 388.087 572.708 388.323 572.84H389.197C389.428 571.965 388.134 572.147 387.448 571.966C387.078 571.869 386.592 571.772 386.281 571.673C386.385 571.284 386.463 570.896 386.573 570.507C386.762 569.82 387.613 567.579 388.183 567.298C388.834 566.976 389.1 569.717 389.781 569.922C389.635 571.867 390.158 571.021 391.239 570.505C393.985 569.192 392.618 569.533 392.495 567.388C392.41 565.87 394.499 566.306 395.484 566.69C396.559 567.11 396.899 568.277 397.125 568.397C397.507 568.609 398.188 568.355 398.655 568.47C399.183 568.598 399.548 569.109 400.112 569.06C400.944 568.993 401.6 567.473 402.208 567.353C402.979 567.202 404.084 568.47 404.935 568.039C405.986 567.504 405.239 565.912 405.586 565.311C405.635 565.226 407.08 564.144 407.177 564.121C408.283 563.817 408.702 566.721 409.6 565.834C409.752 565.688 408.525 562.906 408.434 562.043L409.6 560.877C410.05 560.804 410.591 560.931 411.058 560.877C410.984 560.337 411.161 559.62 411.058 559.127C412.199 557.147 412.703 554.997 412.515 552.712C412.673 552.67 412.866 552.184 413.389 552.543C414.021 552.981 414.028 554.948 415.716 554.462C415.838 553.278 415.655 552.293 414.702 551.527C414.386 551.272 413.688 551.338 413.651 551.084C413.415 549.523 414.216 548.842 415.716 549.207C416.324 547.439 413.785 547.658 413.439 547.111C413.238 546.795 413.408 545.751 413.087 545.282C415.14 544.924 416.093 542.335 413.627 541.528C413.002 541.321 410.584 540.847 409.94 540.819C408.507 540.74 407.408 540.557 406.229 540.472C405.258 540.406 402.257 541.705 403.325 539.586C403.429 539.373 404.492 538.631 404.928 538.128C405.864 538.013 405.621 537.563 405.803 537.254C406.053 536.822 406.586 536.544 406.386 535.796C404.193 535.103 404.236 537.595 402.444 537.569C402.006 537.563 400.282 536.039 400.251 535.898C400.008 534.816 400.725 534.635 401.435 534.337C402.722 536.021 406.52 533.986 403.476 532.88C402.012 532.352 400.78 532.814 399.266 532.328C398.556 532.474 399.297 534.144 397.493 534.358C396.194 534.509 396.6 533.738 395.914 533.575C394.25 533.174 393.175 534.619 393.563 531.418C394.202 531.569 397.639 532.226 397.347 530.98C397.244 530.536 396.091 530.39 395.95 530.183C395.804 529.952 395.943 529.436 395.737 529.096C395.683 529.004 394.323 527.979 394.224 527.948C393.1 527.639 393.18 528.999 392.899 529.297C392.619 529.594 392.044 529.49 391.721 529.674C391.424 529.843 391.527 530.226 391.502 530.244C390.877 530.718 390.839 529.473 390.634 529.084C390.507 528.853 390.44 528.41 390.276 528.276C390.099 528.137 389.875 528.252 389.759 528.21C387.913 527.585 386.06 528.441 386.266 525.737C386.302 525.263 386.801 524.935 386.843 524.711C386.971 524.595 387.39 524.492 387.426 524.419C388.197 524.777 388.489 524.619 389.175 524.419C389.272 524.388 389.394 524.454 389.467 524.419C391.089 523.617 390.797 521.703 391.216 521.503C391.32 521.453 391.617 521.526 391.799 521.503C391.987 521.479 392.2 521.533 392.381 521.503C392.916 521.406 393.614 521.448 393.803 520.732C394.07 519.718 393.105 519.911 392.964 519.753C392.77 519.534 392.339 517.603 392.381 517.129C392.648 516.929 393.147 516.266 393.256 515.962C393.603 516.024 394.131 515.878 394.423 515.962C395.304 516.217 398.529 520.409 399.331 518.101C399.828 516.66 398.407 515.064 400.545 514.796C406.674 516.26 412.7 518.101 418.786 519.728C420.694 520.237 422.674 520.383 424.447 521.204C424.708 521.326 424.489 521.689 425.614 521.786C425.795 521.805 426.014 521.798 426.196 521.786C426.505 521.762 426.804 521.647 427.071 521.494C426.948 522.831 427.356 523.116 428.686 522.982C429.221 522.928 429.063 522.435 429.311 522.374C429.676 522.289 430.452 522.466 430.562 522.362C430.685 522.246 430.326 521.202 431.043 520.952C432.295 520.521 434.178 521.457 435.52 521.207L433.473 534.176C433.485 534.461 434.329 534.31 434.645 534.327L444.704 535.518C451.246 534.82 457.927 535.379 464.518 535.209C466.121 536.522 467.337 537.269 469.469 537.541C469.796 537.541 469.834 535.822 469.919 535.494C470.812 532.177 471.748 528.928 472.542 525.58C472.627 525.222 473.302 524.663 473.113 524.008C472.962 523.485 472.111 523.631 472.001 523.51C471.661 523.133 472.93 518.845 473.13 518.001C473.38 516.931 473.531 515.553 473.713 514.792C473.736 514.701 473.689 514.592 473.713 514.5C473.724 514.451 474.125 514.135 474.222 513.71C474.635 511.93 476.737 504.233 476.627 503.128H476.919L478.086 503.42C478.244 501.664 478.595 499.884 478.96 498.172C478.979 498.075 479.196 497.863 479.252 497.589C479.361 497.054 479.276 496.392 479.544 495.84C480.85 496.441 482.637 496.514 483.918 497.297C483.875 497.443 483.875 498.306 483.918 498.464C484.13 499.242 487.397 499.461 488.291 499.631C489.743 499.911 491.212 500.239 492.664 500.505C492.299 501.647 491.157 502.479 491.207 503.712C494.196 504.709 494.578 502.995 495.872 500.796C496.442 500.904 497.055 500.954 497.621 501.088C497.876 501.149 498.187 501.295 498.496 501.38C499.158 502.637 501.933 504.727 502.444 505.76C502.699 506.27 501.94 507.273 501.704 507.795C501.322 508.62 500.136 510.133 500.822 510.857C501.084 511.13 506.138 513.705 506.793 513.931C508.639 514.563 511.695 515.159 513.658 515.376C513.809 515.395 514.139 516.027 514.533 515.084L521.53 514.792C521.565 512.8 522.003 510.624 522.112 508.669C522.131 508.377 522.093 508.087 522.112 507.795C522.251 505.291 522.306 502.71 522.404 500.213C522.428 499.532 522.374 498.846 522.404 498.172C522.428 497.589 522.385 497.005 522.404 496.422V496.13C522.423 495.59 522.666 495.116 522.696 494.673C522.703 494.576 522.696 494.479 522.696 494.381C522.715 494.053 522.757 492.693 522.696 492.631L521.232 491.896L521.53 490.583L522.689 490.875C522.689 489.885 521.395 490.213 521.822 488.834C521.9 488.73 522.55 489.247 522.689 489.126C523.248 488.645 522.119 488.506 522.093 488.372C521.839 487.035 522.841 487.248 522.98 487.078C523.435 486.512 522.379 486.453 522.397 486.368C522.458 486.059 522.932 485.451 522.98 485.043C523.004 484.854 522.956 484.649 522.98 484.46C523.041 483.999 522.926 483.47 522.98 483.003C523.034 482.553 522.871 482.067 523.46 481.879C524.439 481.556 527.105 481.94 528.387 481.848C530.033 481.733 531.758 481.799 531.728 479.795H532.02C531.928 481.29 531.758 481.915 531.145 483.289C531.923 483.47 532.701 483.683 533.477 483.878C534.948 484.243 537.517 484.443 538.713 485.203C540.219 486.157 542.935 490.481 544.404 492.042C544.793 492.455 545.217 492.936 545.722 493.209C545.813 493.258 545.868 493.482 546.16 493.501C547.435 492.949 551.377 493.695 551.808 492.129C552.143 490.919 549.336 482.682 549.816 482.142C553.454 481.346 556.881 479.768 560.3 478.339C560.415 478.29 560.724 478.424 560.955 478.328C561.137 478.249 561.703 477.472 562.339 477.465C564.265 477.3 565.777 476.383 567.587 476.008C572.538 474.982 578.733 476.288 583.775 475.722C584.037 475.692 586.138 475.199 586.241 475.133C587.17 475.498 586.654 476.821 587.189 477.393C587.674 477.91 590.11 478.572 590.906 478.924C590.906 479.075 591.192 479.513 591.198 479.933C591.222 481.251 591.187 482.568 591.198 483.881H595.571C595.633 482.769 595.487 481.628 595.571 480.51C595.602 480.085 595.857 479.671 595.864 479.508C596.264 479.43 597.066 479.732 597.351 479.331C598.117 478.268 598.487 474.003 599.44 472.881C600.15 472.055 603.304 470.561 604.452 469.588C605.369 468.81 605.508 468.258 606.062 467.553C608.874 463.986 611.505 460.27 614.383 456.746C614.214 454.947 614.353 455.987 615.258 455.324C615.756 454.959 616.005 454.042 616.46 453.896C617.099 453.689 618.021 454.061 618.605 453.708C619.395 453.227 622.469 446.18 623.537 445.015C623.95 444.548 625.949 444.487 626.137 444.19C626.387 443.808 625.894 440.733 625.883 439.852C625.883 439.809 626.156 439.628 626.163 439.39C626.229 437.957 625.342 438.181 625.3 438.103C625.173 437.867 625.392 436.766 625.3 436.353C625.404 436.304 625.494 436.11 625.592 436.061C626.497 435.618 627.834 435.344 628.471 434.42C629.091 433.522 629.989 428.977 630.536 428.614C631.29 428.109 634.102 428.833 635.432 428.262C636.403 427.849 637.139 426.008 637.254 424.982H637.546V421.484H637.254L637.32 421.502L637.349 421.499ZM351.05 474.355L351.42 472.235L351.724 470.479L351.05 474.355Z" fill="#E8EBED"/>
<path d="M237.57 667.405L235.924 680.57L252.679 682.666L254.326 669.501L237.57 667.405Z" fill="#E8EBED"/>
<path d="M368.377 749.847C368.268 752.702 368.523 755.607 368.389 758.462C368.346 759.397 368.085 762.945 367.811 763.424C367.119 764.634 363.408 766.911 363.17 767.84C363.055 768.29 364.068 770.61 364.445 771.133C364.865 771.23 369.882 766.475 370.417 765.739C371.084 764.815 374.712 755.899 374.778 754.92C374.87 753.657 374.042 751.009 373.479 749.854H368.377V749.847Z" fill="#E8EBED"/>
<path d="M355.575 724.504C355.447 725.895 354.488 727.109 354.7 728.537L359.627 730.02C359.657 729.122 361.109 726.545 360.671 725.925C360.435 725.591 355.921 724.2 355.57 724.504H355.576H355.575Z" fill="#E8EBED"/>
<path d="M409.179 590.35C408.693 590.223 408.389 590.515 408.012 590.643C407.909 590.678 407.812 590.897 407.72 590.935C406.638 591.335 406.002 591.724 405.096 592.101C404.629 592.295 404.215 592.569 403.93 592.684C403.607 592.818 402.933 592.818 402.473 592.976C401.233 593.396 400.146 594.19 399.028 594.69C397.637 595.31 395.936 595.692 394.606 596.477C393.755 596.465 390.08 596.75 389.941 596.033C389.863 595.632 390.773 594.855 390.5 594.041C390.177 593.081 387.675 593.919 388.253 591.738C388.392 591.21 389.747 589.977 388.788 589.32C387.147 588.195 387.166 590.279 386.965 590.59C386.527 591.264 384.518 590.802 383.813 590.651C383.205 590.517 382.507 590.238 381.772 590.068C381.322 589.965 380.733 589.545 380.315 589.486C380.041 589.444 379.726 589.51 379.44 589.486L379.294 589.194L378.863 589.486C378.389 589.467 377.88 589.455 377.406 589.486C377.503 588.672 376.755 588.642 376.239 588.611C374.987 588.533 373.707 588.647 372.448 588.611C371.866 588.593 371.215 588.319 370.407 588.319C369.794 588.319 368.536 588.569 367.783 588.611C367.151 588.647 366.52 588.897 366.326 588.903C365.294 588.953 364.424 588.545 363.41 588.611C362.851 587.767 362.571 588.015 362.243 587.737C362.17 587.675 362.395 587.633 361.661 587.154C361.369 586.96 361.083 586.76 360.786 586.571C361.904 586.171 360.956 585.35 360.494 584.53C361.454 581.821 359.82 581.008 357.578 580.157C356.673 578.912 355.313 578.207 355.544 576.366L356.121 577.533C356.637 575.686 355.44 575.717 354.942 574.993C354.718 574.666 353.759 572.315 353.502 571.7C353.278 571.153 352.682 569.993 352.663 569.526C352.621 568.213 353.934 565.893 354.085 564.12C354.905 563.689 354.875 562.347 354.959 561.496C357.833 562.456 360.876 563.222 363.701 564.12C363.743 564.132 363.937 564.594 364.399 564.722C365.382 564.995 366.209 565.116 367.199 565.287C367.138 565.251 367.041 564.947 366.707 564.771C365.886 564.339 364.799 564.17 363.991 563.83C353.149 559.207 341.966 554.803 331.348 550.125C330.334 549.682 329.325 549.354 328.432 548.959C328.378 548.935 328.189 548.527 327.85 548.376C327.772 548.34 327.637 548.412 327.558 548.376C325.535 547.49 323.463 546.639 321.435 545.752C321.259 545.674 321.07 545.558 320.853 545.46C318.623 544.482 316.383 543.515 314.146 542.544C313.38 542.209 309.955 540.946 309.773 540.794C307.21 538.621 304.125 538.328 301.032 537.004C300.947 536.968 300.825 537.039 300.74 537.004C299.33 536.402 289.582 532.156 289.083 531.756C288.937 531.633 289.49 531.343 288.5 531.173C288.409 531.161 288.3 531.173 288.208 531.173C288.105 530.881 287.843 530.949 287.626 530.881C284.005 529.763 280.276 527.868 276.784 526.423C261.397 520.062 244.645 515.118 228.688 510.099C224.327 508.727 219.681 507.159 215.289 506.004C214.723 505.858 214.19 505.719 213.601 505.797C211.512 504.861 209.992 504.382 207.769 503.756C207.677 503.732 207.568 503.78 207.477 503.756C206.006 503.336 196.312 500.901 195.82 500.549C195.789 500.525 195.928 499.979 195.65 499.96C195.414 499.941 194.982 500.269 194.532 500.24C193.415 500.162 193.214 499.511 193.045 499.457C192.795 499.384 191.593 499.579 191.156 499.384C190.086 497.67 190.421 498.571 188.787 498.097C188.41 497.988 188.125 497.689 187.948 497.635C188.118 496.845 187.547 497.076 187.085 496.911C177.409 493.516 166.543 489.78 156.696 487.064C155.895 486.845 154.916 486.335 154.145 486.845C144.779 484.233 135.699 480.345 126.168 478.388C126.137 478.377 126.034 478.037 125.675 477.879C125.008 477.582 123.992 477.514 123.257 477.514C122.467 477.228 120.518 476.238 119.636 476.335C119.37 476.366 119.502 476.906 119.471 476.931C119.009 477.259 112.121 475.899 110.87 475.771C88.1465 473.371 67.7721 478.845 49.5563 492.269C42.5899 497.402 35.3722 503.459 28.6792 509.006C28.3939 509.242 28.2971 509.771 28.2054 509.826C28.1205 509.88 27.7384 509.583 27.397 509.734C27.1304 509.85 23.0596 513.16 22.8846 513.403C22.4533 513.999 21.9557 518.044 21.8453 519.07C21.2135 525.096 20.7278 531.591 20.3882 537.579C20.3151 538.831 20.4374 540.119 20.3882 541.37C21.2084 541.91 20.8314 545.027 20.9707 545.161C21.0624 545.253 22.1068 545.095 22.4278 545.161L23.3024 555.367L24.4691 555.075V555.367L25.6359 566.447C41.7272 563.015 57.6231 558.66 73.6159 554.801L91.6619 558.847L87.1309 625.93L103.343 616.934L120.351 609.602C120.236 610.021 120.606 610.75 120.169 611.09C116.907 612.518 113.5 613.666 110.238 615.081C109.856 615.246 109.57 615.609 109.187 615.779C108.251 616.192 106.94 616.137 106.362 617.177C99.6676 620.086 93.2974 623.58 87.1309 627.528C86.5348 628.16 86.3717 632.206 86.2868 633.391C86.2631 633.731 86.1051 634.327 86.6876 634.084C87.1071 633.914 88.4488 632.231 89.033 631.757C94.1058 627.639 95.7752 628.362 101.711 626.941C106.096 625.896 110.379 624.437 114.813 623.576C114.806 623.017 114.886 620.556 115.311 620.37L142.013 616.817C144.187 614.897 147.595 613.323 149.698 611.531C152.213 609.386 154.702 605.104 157.375 603.172C157.467 603.105 158.342 603.379 157.958 602.443C157.727 601.884 156.968 602.035 156.501 602.005C156.52 601.816 156.477 601.611 156.501 601.422C156.987 597.601 160.23 601.495 162.034 600.402C162.538 600.092 167.604 591.726 168.406 590.434C168.618 590.094 168.637 589.637 168.74 589.467C169.099 588.897 169.433 588.562 169.907 587.718C169.98 587.584 170.57 587.463 170.721 586.935C171.001 585.963 170.551 584.469 170.782 583.637C170.794 583.594 171.225 583.198 171.364 583.054C173.637 580.715 175.975 582.988 178.441 582.41C179.353 582.198 179.674 581.59 179.813 580.722C179.832 580.63 179.813 580.529 179.813 580.43L180.7 579.433C180.438 577.446 178.543 574.598 178.354 572.848C178.258 571.901 178.427 570.522 178.793 569.642C179.115 568.864 179.679 568.701 179.813 568.475C181.034 567.94 182.001 568.433 183.02 568.475C183.816 568.506 183.944 567.709 184.186 567.018C184.849 565.116 184.799 563.731 184.478 561.77C185.233 561.831 186.082 561.685 186.81 561.77C188.481 561.97 189.118 562.979 190.601 563.519C190.613 564.12 191.306 564.479 191.16 565.061C191.068 565.42 190.346 565.832 190.085 566.349C189.903 566.7 189.319 568.942 189.441 569.052C190.018 569.034 190.608 569.083 191.19 569.052C192.326 568.998 191.452 568.366 191.925 567.308C192.291 566.488 194.222 565.292 194.391 563.645C194.599 561.615 193.42 561.61 192.362 560.887C191.681 560.42 192.015 560.255 191.195 559.72C190.672 559.38 189.743 559.119 190.035 558.407C190.479 557.313 191.785 558.589 192.07 558.553C192.471 558.499 193.114 556.681 193.237 556.221L193.819 555.929C193.819 556.007 194.22 557.374 194.281 557.424C194.604 557.673 196.777 557.831 196.997 557.643C196.997 556.483 198.133 555.413 198.364 554.465C198.557 553.668 198.083 552.8 198.644 551.853C199.172 550.954 200.66 551.476 201.195 550.304C201.619 549.363 200.757 548.373 200.599 547.546C200.179 545.401 200.198 545 201.108 543.099C201.721 542.461 201.995 542.418 202.275 541.642C202.305 541.557 202.244 541.435 202.275 541.35C203.229 541.447 203.878 540.518 204.462 539.898C205.228 539.084 208.727 534.261 209.17 534.108C210.579 534.211 217.03 533.556 217.529 534.704C217.68 535.056 217.838 536.059 217.722 536.392C217.711 536.428 217.291 536.538 217.199 536.878C217.084 537.297 216.775 539.66 217.722 539.308V537.559C218.828 540.079 218.045 542.783 218.003 545.273C217.96 547.654 218.057 550.047 218.015 552.429V553.303C217.887 558.704 217.444 563.472 217.14 568.757C217.116 569.195 217.152 569.596 217.14 569.924C217.133 570.117 217.147 570.313 217.14 570.506C216.793 580.372 218.307 590.26 217.722 599.957C217.704 600.223 217.206 600.723 217.425 601.512C217.51 601.821 217.996 601.677 218.015 601.706C218.088 601.828 218.295 604.045 218.319 604.464C218.427 606.178 217.953 609.785 218.361 611.129C218.538 611.706 219.229 611.852 219.631 612.204C220.299 612.8 219.601 612.97 220.931 613.078C221.027 613.085 221.124 613.078 221.223 613.078C222.213 613.649 222.632 614.712 223.41 615.41C224.636 616.509 230.838 621.108 232.09 621.618C232.217 621.667 234.393 622.007 234.714 622.043C234.945 622.066 235.655 621.684 235.796 621.824C236.088 622.128 235.831 623.434 234.921 622.99C234.52 623.355 237.825 626.003 238.25 626.216C239.106 626.647 242.113 627.455 242.665 627.916C243.266 628.413 244.384 630.601 245.393 631.311C246.024 631.754 247.312 631.931 247.653 632.398C247.889 632.72 247.933 633.199 248.321 633.77C248.332 633.576 248.309 633.381 248.321 633.188C248.872 633.322 248.976 633.826 248.898 634.354C248.801 634.561 248.467 633.989 248.321 633.772C248.285 634.331 248.302 635.533 248.806 635.837L252.402 636.688C253.319 638.116 252.882 637.794 253.41 639.324C253.519 639.64 255.567 642.726 255.761 642.804C256.119 642.955 256.301 642.743 256.192 642.372C255.919 641.46 254.893 640.058 254.485 639.122C252.852 635.38 250.737 629.925 250.374 625.891C250.082 622.659 250.228 617.836 250.374 614.519V613.936C250.659 612.734 251.576 610.874 252.177 609.744C252.396 609.337 252.293 608.821 252.998 608.979C252.998 610.527 252.875 612.289 252.998 613.802C253.071 614.695 252.852 614.556 253.872 614.519C248.168 618.613 252.463 630.628 254.789 635.908C257.979 643.149 267.229 655.056 274.858 657.673L276.025 659.423C273.752 658.956 269.094 655.207 267.144 653.585C266.204 652.802 265.431 651.787 264.509 650.973L264.07 652.14L263.203 652.279C263.986 655.462 265.376 655.943 267.43 657.965C271.341 661.811 274.622 665.292 277.597 669.951C277.986 670.564 279.085 673.03 279.231 673.134C279.955 673.657 280.179 671.731 280.683 671.677C280.938 672.898 280.221 673.893 280.101 675.024C279.693 678.893 282.288 682.611 282.724 686.541H281.85C281.388 684.233 280.841 681.961 279.808 679.834L279.243 682.616C278.003 683.413 276.916 685.052 275.44 684.79L275.733 686.539C274.992 686.832 274.585 684.911 273.988 685.379C273.939 685.415 273.649 686.327 273.812 686.551C274.109 686.971 277.857 687.614 276.898 688.581C276.6 688.885 274.894 687.688 274.279 688.003C273.885 688.812 276.059 689.722 275.439 690.33C275.123 690.646 274.225 689.771 273.841 689.76C273.336 689.741 272.784 690.337 272.238 690.337C272.36 691.004 275.215 690.792 274.856 691.643C274.547 692.367 273.623 691.74 273.041 691.837C271.195 692.141 272.56 693.61 272.209 694.097C272.117 694.225 271.212 694.248 270.806 694.887C270.405 695.519 270.502 696.587 270.167 697.457C269.615 698.885 268.175 699.741 267.574 701.132C267.525 701.132 267.161 701.387 266.699 701.424C266.372 700.908 265.497 701.181 264.95 701.132C264.568 701.101 264.167 701.174 263.783 701.132L263.734 701.12C263.564 701.071 263.053 700.889 262.617 700.84C262.435 700.816 262.223 700.84 262.034 700.84C261.542 700.84 261.572 700.251 260.867 701.422C260.448 702.12 260.363 702.735 259.701 703.464C258.498 704.782 257.714 704.704 256.202 705.213C255.88 705.322 255.479 705.353 255.036 705.505C254.422 705.718 254.27 705.899 253.869 706.088C253.662 706.185 253.261 706.1 252.836 706.355C251.208 707.333 248.287 711.506 247.874 713.359C247.181 716.499 248.256 715.606 250.662 716.294C250.759 716.324 250.972 716.501 251.245 716.586C255.297 717.819 260.349 719.684 264.354 720.54C264.712 720.613 265.174 720.759 265.526 720.667C266.078 720.867 265.939 721.202 266.108 721.542C266.528 722.393 267.037 723.237 267.275 724.166C264.93 725.861 265.714 724.724 264.055 725.163C263.242 725.375 263.089 726.42 262.615 726.651C261.941 726.978 261.158 726.662 260.496 726.802C260.203 726.863 260.107 727.318 259.991 727.379C257.641 728.577 257.561 727.761 255.903 728.089C255.418 728.186 254.937 728.782 254.749 728.836C253.881 729.086 252.75 728.952 251.96 729.402C251.437 729.699 251.079 730.586 250.647 731.012C250.338 731.316 249.615 731.377 249.542 731.505C249.334 731.839 249.681 732.688 249.36 733.223C249.166 733.546 248.563 733.589 248.247 733.801C248.047 733.935 248.059 734.371 247.854 734.397C247.434 734.439 246.778 734.074 246.154 734.074C244.409 734.074 245.078 734.767 244.756 735.605C243.705 738.339 244.209 737.318 244.476 739.851C244.676 741.722 243.339 741.466 245.709 742.84C245.824 742.906 246.164 742.773 246.291 742.84C248.205 743.818 259.922 757.692 262.029 760.335C264.228 763.093 260.747 763.541 261.737 766.167C261.883 766.549 262.793 768.044 262.97 768.148C263.451 768.414 264.264 767.782 264.325 769.246C264.325 769.374 263.887 769.325 263.785 769.593C263.67 769.89 263.846 770.418 263.778 770.541C263.748 770.595 262.727 770.286 263.481 771.276C263.962 771.908 267.8 774.897 268.644 775.444C278.441 781.804 283.618 774.01 292.789 772.874C293.682 772.766 294.86 773.044 295.65 772.862C295.924 772.801 295.723 772.066 296.574 772.28C296.713 772.315 296.593 772.9 297.14 772.893C300.73 772.839 304.508 772.455 308.092 771.994C309.865 771.763 311.59 771.369 313.34 771.12C322.821 769.764 333.519 768.234 342.387 773.112C347.203 775.76 349.415 781.561 354.141 784.242H355.015C355.539 783.282 357.142 782.716 356.199 781.453C355.355 780.323 354.79 782.03 354.122 782.365C353.509 782.669 353.424 782.237 353.266 782.2C353.502 781.561 354.779 781.344 354.676 780.658C354.341 778.477 352.271 779.394 351.232 777.973C352.015 776.702 352.945 777.706 354.11 777.506C354.256 776.594 355.338 773.727 353.455 774.085C352.908 774.189 352.398 775.483 351.668 775.495C351.345 775.429 350.836 772.968 350.94 772.876C351.055 772.772 352.482 773.477 353.674 772.548C355.897 770.811 351.644 770.41 351.529 770.233C350.977 769.347 352.762 769.031 353.382 769.151C353.631 769.201 354.949 770.58 355.6 769.96C355.77 769.795 354.902 767.123 354.725 767.044C352.83 766.176 354.932 767.093 354.143 765.586C354.046 765.405 354.124 765.294 353.85 765.004C353.674 763.721 352.927 761.451 353.268 760.253C353.341 759.999 353.864 759.895 354.119 759.579C354.331 759.312 354.301 758.662 354.623 758.57C355.333 758.37 355.826 758.922 356.191 759.457C356.264 759.566 356.026 760.046 356.337 760.046C356.817 760.119 357.042 759.657 357.357 759.457C357.862 759.134 358.371 759.226 358.524 758.436C358.646 757.797 358.579 756.274 358.397 755.635C358.203 754.943 357.661 755.301 357.65 754.791C358.567 754.98 359.253 755.588 360.268 755.374C359.844 752.087 361.065 753.879 361.982 753.297C362.255 753.12 362.863 750.515 362.316 749.975C361.089 748.748 358.995 750.151 358.708 750.102C358.314 750.036 357.796 748.888 357.067 748.961C356.69 748.128 355.955 747.594 355.61 747.211C355.409 746.992 355.221 746.829 355.027 746.629C354.7 746.289 354.53 746.094 354.153 745.754C353.934 745.561 353.648 745.53 353.57 745.462C353.521 745.419 353.504 744.849 353.158 744.581C352.368 743.967 349.859 743.074 349.81 742.133C349.968 739.679 353.94 722.354 353.261 721.571C353.152 721.443 352.58 721.625 352.41 721.559C352.264 721.498 352.009 721.358 351.828 721.267C349.897 720.312 346.349 718.011 344.326 717.542C342.297 717.075 343.313 718.841 342.061 718.952C341.903 718.964 340.172 718.466 339.88 718.35C339.079 718.046 337.954 717.214 336.964 716.893C338.617 714.317 337.287 714.755 335.507 713.977C334.942 713.734 334.352 713.345 333.758 713.102C332.337 712.52 330.557 711.876 329.093 711.353C329.293 710.241 328.911 710.66 328.454 710.399C327.592 709.901 326.759 709.701 325.885 709.312C326.747 709.335 327.525 706.9 327.634 706.105C328.424 706.312 328.205 705.522 328.509 704.938C329.176 703.663 330.069 702.362 330.258 700.855C331.545 701.93 333.247 702.982 334.631 704.062C335.414 704.675 337.45 705.993 337.839 706.394C337.881 706.436 337.717 706.806 338.009 707.002C338.447 707.294 339.339 707.268 339.88 707.268H340.755C340.87 706.856 340.578 706.679 340.463 706.394C341.222 706.443 341.198 705.955 341.429 705.465C342.103 704.043 342.728 702.391 343.087 700.853C343.318 700.538 343.426 700.775 343.669 699.979C343.792 699.571 343.718 699.153 343.961 698.522C344.247 698.545 344.411 698.498 344.544 698.229C345.279 698.194 345.765 698.904 346.293 699.104V699.979C345.176 699.717 345.084 700.502 345.916 700.804C346.251 700.926 346.597 700.804 346.876 700.853C346.949 701.066 346.821 701.473 346.876 701.728C346.067 702.136 346.074 704.425 346.876 703.77C346.918 703.588 346.826 703.32 346.876 703.187L347.458 703.479C347.392 703.819 347.501 704.276 347.458 704.646C348.267 704.524 348.953 704.379 349.79 704.354C351.181 704.318 351.199 704.189 352.122 704.062C352.796 703.97 353.732 704.062 354.453 704.062C354.503 704.062 354.818 704.366 355.328 704.354C355.663 704.347 356.045 704.069 356.203 704.062C356.78 704.05 357.374 704.097 357.952 704.062C358.657 704.019 359.828 704.22 360.394 704.026C360.977 703.826 360.759 702.847 361.342 702.642C361.894 702.448 363.614 702.746 363.784 702.606C363.899 702.26 363.51 701.913 363.492 701.732C363.256 699.508 363.515 696.769 364.949 695.025C366.851 692.71 367.652 693.968 370.197 694.15C370.366 694.301 370.555 694.405 370.779 694.442C371.519 694.569 372.868 694.466 373.695 694.442C374.515 694.418 375.013 694.248 375.736 694.15C375.925 694.126 376.137 694.181 376.319 694.15C377.467 693.95 378.858 694.101 378.651 692.278C378.632 692.114 377.436 689.326 377.326 689.199C377.029 688.834 375.923 688.348 375.437 688.318C375.122 688.299 374.629 688.579 374.271 688.61C374.113 688.574 373.877 688.61 373.688 688.61H373.106C372.481 688.124 371.891 688.172 371.649 688.027C371.484 687.924 371.224 687.614 371.066 687.445L371.649 685.695C371.764 685.671 372.007 685.386 372.231 685.403C372.267 685.695 372.054 686.071 372.516 685.986C372.96 684.06 373.422 682.518 374.266 680.738H374.848C374.794 680.872 374.884 681.145 374.848 681.32C374.508 681.667 374.478 681.825 374.266 682.195C374.204 682.304 374.327 682.626 374.266 682.777C374.211 682.912 372.705 684.241 374.266 684.235C374.058 683.19 374.393 683.263 374.848 682.777C375.334 682.254 375.376 682.546 375.723 681.611C375.874 681.198 376.433 680.59 375.723 680.153C375.801 679.953 375.923 679.764 376.015 679.571C376.051 679.493 375.979 679.359 376.015 679.279C376.191 679.314 376.458 679.229 376.597 679.279C376.616 679.286 376.67 679.545 376.889 679.571C377.54 679.644 378.268 679.522 378.931 679.571C379.028 679.802 378.9 679.875 379.223 680.153C379.709 680.573 380.062 680.481 380.68 680.446C381.962 680.373 380.746 679.085 381.536 678.531C382.29 678.003 384.457 679.224 384.112 677.117C384.058 676.794 383.669 676.751 383.596 676.655C383.474 676.478 383.881 675.822 382.721 676.072V675.78C382.94 675.106 384.598 676.193 385.364 675.653C385.887 675.287 385.552 673.764 385.637 673.156C387.004 673.399 386.42 675.021 388.249 674.45C390.06 673.885 388.888 672.974 388.845 672.567C388.827 672.378 388.869 672.173 388.845 671.984C389.628 671.675 389.769 670.593 388.845 670.817V669.943C389.993 670.094 391.519 670.525 391.469 668.776C391.5 668.552 391.311 668.564 391.177 668.484C391.274 667.482 390.995 667.567 390.303 667.317C389.774 667.128 389.756 667.317 389.72 667.317C389.532 667.293 389.307 667.353 389.138 667.317C389.034 667.298 388.913 667.347 388.845 667.317C388.706 666.145 388.9 666.624 389.531 666.412C390.072 666.23 390.916 666.011 391.172 665.415C391.434 664.807 390.783 665.044 390.59 664.983C390.443 664.205 391.07 664.559 391.464 664.255C391.087 663.72 390.54 663.703 390.007 663.526L390.299 662.949C389.722 662.894 389.37 662.572 389.132 662.067C389.241 662.001 389.34 661.812 389.425 661.775C391.023 661.119 391.082 659.467 390.591 657.984C390.561 657.892 390.367 657.796 390.299 657.692C390.231 657.588 390.372 657.169 390.299 657.109C390.106 656.945 389.54 657.402 389.425 657.402C389.413 657.109 389.436 656.819 389.425 656.527C391.053 655.919 389.649 654.874 389.717 654.783C389.74 654.752 390.184 654.771 390.427 654.479C391.435 653.234 392.31 651.702 391.756 650.11C391.848 650.092 391.975 649.83 392.048 649.818C392.103 649.806 392.541 650.134 392.996 650.054C393.404 649.988 394.811 649.215 395.256 648.942C395.36 648.881 395.65 648.942 395.834 648.791C396.685 648.074 397.352 643.889 397.845 642.631L398.172 642.819C397.807 644.319 397.006 646.445 396.831 647.777C396.765 648.263 396.788 648.086 397.007 648.359C397.031 648.39 396.953 648.572 397.142 648.59C397.233 648.541 397.281 648.359 397.299 648.359C397.391 648.359 397.5 648.378 397.592 648.359C398.065 648.268 398.801 648.578 399.001 647.874C399.225 645.469 399.706 643.104 399.998 640.705C400.175 639.259 400.295 638.918 400.217 637.279C400.21 637.085 400.224 636.89 400.217 636.696C400.187 635.852 399.974 634.789 399.925 633.78C399.574 626.479 398.874 619.201 399.64 611.912L400.217 613.078C400.217 609.992 401.759 606.755 401.092 603.747C401.28 602.781 401.214 601.786 401.384 600.831C401.518 600.065 401.803 599.275 401.966 598.207L402.264 598.79H402.549C402.591 598.51 402.5 598.17 402.549 597.915C403.016 597.964 403.558 597.849 404.006 597.915C404.084 597.927 404.315 598.177 404.589 598.207C406.302 598.414 405.548 597.684 406.272 596.524C406.788 595.685 407.165 595.225 407.742 594.216C408.49 592.917 409.6 592.054 409.249 590.333L409.182 590.352L409.179 590.35ZM235.449 556.022L236.543 556.472L241.171 545.215L241.359 544.748L239.895 544.147L232.345 541.037L241.359 544.748L236.536 556.466L227.522 552.755L235.436 556.017L235.447 556.024L235.449 556.022ZM255.148 556.289L256.781 552.189L252.347 563.324L255.148 556.289ZM250.593 549.723L250.411 549.65L249.81 549.414L250.593 549.723ZM244.572 536.802L243.74 536.462L235.504 533.084L232.873 539.499L232.533 540.324L235.497 533.084L244.566 536.802H244.572Z" fill="#E8EBED"/>
<path d="M370.729 566.432L370.595 567.062L372.133 567.39L372.267 566.76L370.729 566.432Z" fill="#E8EBED"/>
<path d="M368.669 565.851C368.481 565.097 367.74 565.359 367.212 565.269C367.636 565.518 367.935 566.046 368.669 565.851Z" fill="#E8EBED"/>
<path d="M370.134 566.792C370.332 566.792 370.492 566.631 370.492 566.434C370.492 566.236 370.332 566.075 370.134 566.075C369.936 566.075 369.775 566.236 369.775 566.434C369.775 566.631 369.936 566.792 370.134 566.792Z" fill="#E8EBED"/>
<path d="M369.546 565.858C369.138 565.65 368.767 566.04 368.968 566.144C369.376 566.352 369.747 565.962 369.546 565.858Z" fill="#E8EBED"/>
<path d="M260.676 660.603C259.79 660.931 258.423 661.897 257.706 662.032C255.933 662.354 255.476 660.89 255.325 664.389C257.725 664.467 259.462 666.327 261.848 665.86C262.631 665.709 263.197 664.724 264.144 665.028C264.769 665.228 264.703 666.145 264.995 666.388C265.092 666.466 267.23 667.039 267.425 667.032C268.246 667.008 268.106 666.138 268.409 665.799C268.748 665.416 270.085 664.068 270.462 664.42C270.608 664.554 270.893 667.439 271.379 668.319C271.945 669.352 273.937 670.865 274.672 672.018C275.115 672.704 275.839 675.59 276.859 674.897C276.932 674.848 277.479 673.457 277.345 673.153C274.174 667.419 270.19 662.412 265.372 657.991C264.941 657.597 262.093 655.039 261.874 655.082C260.41 655.386 263.083 656.807 263.186 657.572C263.236 657.961 262.731 660.165 262.548 660.281C262.383 660.389 261.249 660.396 260.683 660.603H260.676Z" fill="#E8EBED"/>
<path d="M328.352 809.101C329.075 808.396 330.028 807.692 330.764 806.994C338.246 799.85 345.658 792.627 353.22 785.561L353.347 785.288C353.298 785.003 352.048 784.255 351.756 784.031C351.568 783.885 351.337 783.904 351.318 783.885C351.282 783.849 350.808 783.131 350.735 783.01C350.431 782.506 350.297 782.27 350.007 781.844C349.625 781.285 349.637 780.988 349.424 780.531C348.069 777.652 346.247 775.33 343.592 773.533C343.076 773.187 342.772 773.048 342.28 772.805C341.891 772.616 341.636 772.525 341.259 772.367C339.946 771.82 338.605 771.315 337.176 770.909C337.098 770.886 336.969 770.933 336.884 770.909C336.349 770.763 336.21 770.563 335.427 770.471C333.119 769.632 330.568 769.566 328.138 769.45C320.63 769.092 313.894 771.218 306.617 772.056C303.64 772.402 300.21 772.025 297.294 772.506C297.02 772.548 296.711 772.341 296.796 772.798C296.589 772.798 295.837 772.834 295.775 772.798C295.764 772.791 295.83 772.536 295.684 772.494C295.429 772.428 295.246 772.645 295.191 772.652C294.371 772.706 293.534 772.603 292.713 772.652C291.007 772.749 289.13 772.992 287.612 773.819C287.315 773.904 286.907 774.141 286.591 774.257C285.078 774.804 284.173 775.471 282.801 776.152C282.527 776.287 282.108 776.444 281.78 776.591C281.197 776.621 280.474 776.798 280.031 777.173C279.981 777.18 279.934 777.166 279.885 777.173C277.358 777.543 274.776 777.623 272.303 776.881L272.595 785.264C272.584 785.988 272.954 786.521 273.178 787.087C273.244 787.263 273.251 787.499 273.324 787.669C273.197 787.693 272.978 787.634 272.886 787.669C272.837 787.476 272.794 787.28 272.74 787.087C272.594 786.552 272.533 786.12 272.144 785.708L271.797 777.02C269.282 776.157 267.285 774.646 265.305 772.944C265.008 772.494 264.8 772.204 264.284 771.923C264.272 772.317 264.478 772.652 264.564 773.029C264.741 773.831 264.953 774.42 265.342 775.167C265.762 775.969 266.66 776.735 265.385 777.47C264.479 777.993 264.345 776.839 263.763 777.306C263.386 777.61 263.713 777.895 263.671 778.235C263.635 778.532 263.27 778.921 263.263 779.303C263.263 779.546 263.622 780.427 263.657 780.932C263.681 781.259 263.469 781.582 263.566 781.886C263.657 782.178 264.259 782.214 264.49 782.572C264.636 782.803 264.799 783.544 264.805 783.829C264.836 784.819 264.539 785.894 264.367 786.823C264.16 787.922 264.58 787.795 263.554 788.768C262.436 789.824 259.886 790.14 258.354 790.14C257.873 790.14 257.382 789.582 256.902 789.989C256.683 790.178 256.75 790.517 256.61 790.725C256.531 790.84 256.329 790.871 256.258 790.986C255.553 792.116 256.428 792.073 256.404 792.681C256.392 793.063 256.088 793.32 256.01 793.61C255.888 794.035 256.059 794.546 255.633 794.909C255.482 795.037 254.746 795.044 255.39 795.395C255.366 795.419 255.366 795.638 255.251 795.765C255.124 795.905 254.831 795.935 254.796 796.075C254.753 796.244 254.887 796.931 254.947 797.138C254.662 796.961 254.419 797.077 254.509 796.555H254.369C254.285 796.999 253.641 797.253 253.495 797.649C253.367 797.995 253.957 797.771 254.23 798.074C254.266 798.116 254.728 798.972 254.746 799.028C255.008 799.921 254.072 799.764 253.853 800.195C253.622 800.662 254.065 801.178 253.902 801.695C253.884 801.761 253.393 802.843 253.356 802.904C253.155 803.227 252.681 803.196 252.615 803.359C252.561 803.498 252.596 803.729 252.506 803.942C252.422 804.149 252.087 804.307 252.209 804.538C252.245 804.604 252.768 804.573 252.306 805.346C252.045 805.789 251.559 805.62 251.443 806.093C251.304 806.659 252.014 806.445 252.172 806.829C252.396 807.364 251.698 807.072 251.594 807.479C252.335 807.71 252.596 808.111 252.62 808.877C252.632 809.259 252.14 809.005 251.953 809.375C251.819 809.641 251.649 810.858 251.983 810.954C252.056 810.978 253.15 810.99 252.809 811.263C252.462 811.544 252.608 811.798 252.639 812.277L253.78 812.727C253.714 813.274 253.24 813.135 252.759 813.166C252.759 812.93 252.771 812.485 252.474 812.734C252.432 812.765 252.498 813.001 252.474 813.02C252.413 813.062 252.012 812.923 251.734 813.227C251.399 813.592 251.552 814.174 251.43 814.526C251.352 814.75 251.022 814.72 251.01 814.849C250.932 815.785 251.781 815.207 251.854 815.888C251.939 816.659 251.156 816.666 251.6 817.243V817.389C251.545 817.486 251.508 817.59 251.454 817.682C251.423 817.33 250.919 817.038 250.725 817.243C250.633 817.34 250.859 817.84 250.829 818.021C250.798 818.198 250.166 819.005 249.996 819.424C249.978 819.467 250.008 819.528 249.996 819.57C249.499 819.436 249.188 819.806 248.763 819.868C248.344 819.929 246.892 819.703 246.783 819.776C246.406 820.049 246.849 821.275 247.665 821.174C247.761 821.44 248.15 821.612 248.223 821.86C248.32 822.182 247.658 824.113 247.488 824.569C246.722 826.598 245.673 828.638 246.097 830.977C246.189 831.481 246.802 832.137 246.802 832.459C246.802 832.587 246.432 832.563 246.371 832.775C246.352 832.83 246.347 833.85 246.371 833.905C246.444 834.136 246.783 834.124 246.802 834.141C246.851 834.202 246.413 834.584 246.394 834.815C246.376 835.039 246.602 835.209 246.618 835.393C246.637 835.617 246.461 835.873 246.503 836.079C246.534 836.249 246.958 836.194 246.965 836.541C246.965 836.892 246.345 836.887 246.583 837.786C247.002 839.365 247.877 838.333 248.266 838.575C248.575 838.769 249.207 839.943 249.499 840.27C250.258 841.133 251.776 842.305 252.894 842.56C253.288 842.652 253.69 842.536 254.108 842.657C254.697 842.833 255.638 843.883 256.289 844.048V844.34C255.687 844.418 255.39 845.245 255.414 845.797C254.358 846.047 254.667 848.086 254.898 848.864C255.02 849.272 255.784 850.328 255.81 850.553C255.822 850.661 255.706 852.587 255.682 852.691C255.616 852.964 254.874 853.681 254.838 853.778C254.553 854.549 254.893 855.254 254.838 855.758C254.826 855.862 254.577 855.843 254.492 856.032C254.358 856.354 254.388 856.657 254.164 857.015C253.952 857.361 253.131 857.981 253.009 858.194C252.863 858.436 252.833 859.165 252.639 859.5C254.716 859.785 257.165 859.98 259.053 860.957V861.103L258.907 861.249C257.224 860.745 253.113 859.281 251.527 859.912C251.161 860.058 251.357 860.222 251.326 860.52C251.253 860.532 251.065 860.728 250.888 860.666L251.168 860.874C250.536 862.222 251.296 863.522 251.326 864.896C251.046 864.95 249.266 866.621 249.061 866.93C248.818 867.289 248.86 867.611 248.69 867.878C248.582 868.048 248.308 868.085 248.283 868.128C248.228 868.219 248.811 869.683 248.41 870.144C248.368 870.113 248.125 870.162 247.986 870.065C246.607 869.087 245.35 867.934 244.032 866.871C242.592 866.409 242.903 867.807 242.714 868.608C242.592 869.125 242.106 870.303 242.125 870.801C242.174 871.833 243.4 872.083 243.249 872.63C243.195 872.837 242.514 873.578 242.325 873.627C241.974 873.719 241.585 873.36 241.262 873.566C241.007 873.731 240.576 874.891 240.68 875.249C240.213 874.94 240.109 875.431 239.762 875.572C238.706 876.003 236.507 876.508 236.453 877.875C236.981 877.856 237.528 877.905 238.056 877.875V878.021H236.16C236.021 878.282 236.306 878.664 236.306 878.749C236.306 878.884 236.325 879.059 236.306 879.188C236.257 879.522 235.955 880.123 235.882 880.59C235.773 881.314 235.936 882.255 235.882 882.752C235.846 883.05 235.517 883.141 235.439 883.707C234.571 883.707 235.026 883.846 234.71 883.999C234.449 884.121 233.756 884.157 233.543 884.551C233.307 884.994 233.324 886.216 233.246 886.768C232.45 887.916 231.976 888.354 230.804 889.094C230.306 889.41 229.607 889.417 229.748 890.266C229.705 890.278 229.644 890.4 229.602 890.412C228.836 890.643 229.383 890.582 229.073 890.862C228.916 891.008 228.296 891.124 228.095 891.282C227.944 891.397 228.01 891.567 227.998 891.579C227.944 891.628 227.902 891.671 227.852 891.725C227.841 891.737 227.664 891.676 227.555 891.822C227.373 892.058 227.178 892.442 227.124 892.746C226.985 892.758 226.589 892.819 226.541 892.965C226.438 893.288 226.808 893.153 226.833 893.184C226.857 893.215 226.699 893.736 226.687 893.913C226.681 894.009 226.687 894.106 226.687 894.205C226.117 894.059 226.02 894.867 225.667 895.226C225.29 895.275 225.278 895.426 225.084 895.518C224.957 895.579 224.568 895.603 224.519 895.682C224.354 895.944 224.641 896.357 224.646 896.538C224.646 896.562 224.384 896.866 224.5 896.977C224.549 897.026 224.95 896.934 225.082 896.977C226.497 897.439 226.224 898.83 227.414 896.685C227.438 896.635 227.523 896.593 227.56 896.538H227.998C228.296 896.538 228.581 896.69 228.873 896.685C229.165 896.8 229.778 897.231 229.894 897.486C230.087 897.918 229.189 897.359 229.456 897.771C229.637 898.052 230.415 898.045 230.33 898.865C229.765 898.889 229.936 899.443 230.476 899.303C231.089 900.621 231.697 901.951 232.372 903.24C232.395 903.29 232.341 903.459 232.395 903.587C232.499 903.811 233.093 904.03 233.1 904.485C233.1 904.855 232.134 905.294 232.518 905.506C232.73 905.622 233.812 905.64 233.988 905.506C234.212 905.348 234.116 904.813 234.122 904.546L234.415 904.839V904.985C234.415 905.081 234.403 905.178 234.415 905.277C234.615 905.423 236.128 905.058 236.456 905.423C236.34 905.616 236.371 906.17 236.286 906.274C236.14 906.444 234.27 906.601 234.141 906.972L232.811 925.104C232.745 925.111 232.677 925.177 232.665 925.25L233.832 907.257C233.79 906.96 232.599 907.415 232.375 907.464C231.762 907.598 229.265 908.089 228.912 908.376C228.257 908.904 228.523 910.38 228.584 911.111H227.856C228.063 911.773 228.961 915.09 228.579 915.479C228.53 915.533 227.759 915.479 227.698 915.729L228.148 919.927C228.117 920.309 227.613 920.474 227.492 920.741C227.176 921.427 228.117 923.833 228.1 924.774C228.094 925.097 227.504 926.05 228.15 925.984C228.053 926.002 227.584 926.172 227.56 926.227C227.452 926.463 227.256 927.533 227.711 927.296C227.365 928.183 227.523 928.834 227.384 929.666C227.306 930.152 226.855 930.717 226.844 931.172C226.825 931.724 227.579 932.575 227.537 933.304C227.506 933.881 226.771 936.529 226.516 937.1C226.351 937.47 225.891 937.896 225.86 938.17C225.799 938.693 226.322 939.985 226.383 940.648C226.492 941.85 225.806 945.362 225.089 946.315C224.561 947.013 223.474 947.397 223.201 948.362C223.073 948.8 223.748 948.44 223.924 948.501C223.663 948.841 223.335 949.236 223.135 949.607C223.019 949.814 223.085 950.123 223.056 950.177C222.212 951.672 220.796 952.978 220.02 954.503C219.898 954.739 219.74 955.529 219.692 955.566C219.504 955.701 218.787 955.335 218.683 955.432C218.617 955.493 218.592 956.337 218.537 956.453C218.143 957.309 216.819 958.64 216.673 959.775C216.618 960.218 216.812 960.504 216.788 960.887C216.727 961.781 216.253 962.486 216.18 963.53C216.114 964.52 216.18 965.675 215.772 966.519L221.604 968.415C221.604 968.415 221.362 968.651 221.173 968.506L215.664 966.691C215.312 966.63 214.905 967.104 214.752 967.396C214.236 968.41 215.068 968.895 215.049 969.65C215.037 970.062 214.794 970.517 214.752 970.967C214.691 971.618 214.879 972.304 214.849 972.839C214.825 973.247 214.229 975.032 214.46 975.27L220.146 975.416C219.636 973.873 220.838 973.18 222.187 972.938H222.241C222.369 972.968 222.606 973.102 222.995 972.792C224.131 971.874 223.36 970.076 223.5 968.855C223.566 968.878 223.7 968.836 223.792 968.855C223.804 969.694 223.804 970.5 223.938 971.333C224.242 971.248 224.261 970.809 224.527 970.677C224.697 970.592 224.994 970.646 225.079 970.58C225.213 970.472 225.14 969.554 225.487 969.451L229.381 970.635L229.612 970.842C229.546 971.231 229.861 973.812 230.14 973.812C230.779 973.812 230.14 971.667 230.104 971.224C229.673 965.325 231.629 963.151 233.53 958.109C234.173 956.402 234.829 954.257 235.352 952.496C236.069 950.077 236.835 947.453 237.066 944.951C238.22 945.194 239.769 945.074 240.892 945.541C241.062 945.614 240.953 945.868 241.068 945.826C241.403 945.692 241.226 945.152 241.288 944.951C241.306 944.89 241.391 944.793 241.434 944.659C241.519 944.374 241.627 944.07 241.726 943.785C241.817 943.523 241.919 943.304 242.018 943.056C242.357 943.105 242.588 942.448 242.704 942.212C243.008 941.587 243.159 941.106 243.329 940.432C243.494 939.764 243.414 939.235 243.475 938.829V938.683C243.791 938.591 243.742 938.3 243.798 938.058C244.01 937.103 244.192 936.15 244.35 935.184C244.385 934.96 244.198 934.661 244.204 934.601C244.312 933.502 244.708 932.487 244.786 931.103C245.206 929.705 245.022 928.229 245.078 926.79C245.09 926.529 244.944 926.22 245.37 926.293C245.304 927.957 245.419 929.853 245.224 931.614C244.963 933.946 244.404 936.407 244.057 938.684C243.923 939.566 243.692 940.422 243.619 941.308C244.475 941.211 243.996 938.854 244.701 938.835C244.84 938.835 245.163 938.944 245.369 938.975C245.588 939.01 245.734 939.109 245.807 939.121C245.297 939.272 245.715 939.703 245.661 939.995C245.63 940.141 245.095 940.651 245.29 941.016C245.314 941.065 245.892 941.544 246.056 941.709C246.287 941.933 246.191 941.971 246.537 941.745C246.306 942.844 245.832 944.296 245.808 945.39L243.185 944.951C243.227 945.213 243.482 945.201 243.67 945.26C244.314 945.468 245.127 945.534 245.802 945.68C246.354 945.795 247.806 945.935 248.189 946.111C248.42 946.215 248.128 946.597 248.425 946.555C248.461 944.768 249.507 943.261 250.198 941.696C250.423 941.191 250.521 940.639 250.708 940.17C250.786 939.977 251.048 940.006 251.048 939.909C251.048 938.683 251.212 937.874 251.333 936.641H254.539C254.473 937.855 254.2 939.06 254.247 940.286L253.665 940.14C253.514 940.62 254.059 940.31 254.108 940.51C254.223 940.965 253.919 941.566 253.957 942.035L254.509 941.349L254.831 937.224C255.567 937.363 256.272 937.37 257.019 937.37L262.929 939.836C263.955 939.975 264.873 939.466 265.845 939.265C266.106 939.211 266.434 939.447 266.349 938.973C267.594 939.532 270.116 940.71 271.391 940.704C271.526 940.704 271.568 940.588 271.599 940.576C271.75 940.534 272.273 940.218 272.327 940.138C272.813 940.265 273.426 939.853 273.84 939.888C274.672 939.967 277.011 941.152 278.152 941.383C278.444 941.444 278.73 941.487 279.027 941.444L283.211 932.691C283.879 932.825 286.139 932.806 286.036 933.789L282.969 938.097C283.291 938.139 283.454 938.09 283.709 937.889C283.787 937.828 284.827 936.505 284.966 936.303C285.044 936.194 284.99 936.079 285.008 936.053C285.324 936.4 284.395 937.414 285.154 937.366C285.197 936.801 285.39 936.14 285.592 935.617C285.847 934.961 286.139 934.73 286.358 934.257C286.516 933.929 286.51 933.181 286.747 932.762C286.79 932.684 287.299 932.106 287.422 931.965C287.622 931.734 287.676 932.001 287.919 931.965C288.162 932.239 286.304 933.587 287.481 933.715C287.547 933.187 288.52 932.39 288.648 932.038C288.787 931.661 288.138 931.911 288.21 931.746C288.714 931.466 288.561 930.963 288.78 930.568C289.436 929.37 290.954 928.265 291.126 926.862C291.684 927.317 291.861 926.237 292.146 925.841C292.601 925.202 292.802 924.808 293.167 924.238C292.875 924.292 292.231 925.398 292 925.695C291.885 925.846 291.8 926.018 291.635 926.133C291.52 926.152 291.55 926.006 291.562 925.914C291.581 925.622 292.017 923.672 292.114 923.405C292.229 923.096 295.443 918.563 295.794 918.193C296.146 917.828 296.985 917.215 297.112 918.047C297.178 918.478 296.049 920.136 295.74 920.61C294.931 921.843 293.972 922.979 293.17 924.236C293.571 924.163 293.693 924.54 294.045 924.528C294.222 923.071 295.502 921.928 296.292 920.725C296.917 919.771 297.664 918.186 298.357 917.396C298.593 917.123 299.104 916.911 299.225 916.649C299.328 916.425 299.175 916.194 299.255 915.968C299.529 915.245 300.057 914.188 300.427 913.483C300.524 913.295 300.719 913.198 300.75 913.156C300.731 913.229 300.707 913.46 300.823 913.448C300.981 913.448 300.847 913.217 300.896 913.156C300.987 913.028 301.151 913.021 301.261 912.724C301.485 912.116 301.534 911.369 301.765 910.744C302.136 909.747 302.677 908.794 303.048 907.797C306.053 899.736 307.847 891.287 310.094 882.989C310.537 882.953 310.987 882.953 311.43 883.012C313.229 883.255 314.504 884.057 316.496 884.142C316.989 884.628 317.967 884.767 318.392 884.142C317.809 884.13 317.225 884.154 316.642 884.142L317.08 881.81C317.773 881.494 318.337 880.996 319.268 880.643C320.209 880.285 319.681 880.449 320.142 880.061C320.536 879.733 321.029 879.66 321.309 879.478C321.613 879.466 322.292 880.376 322.476 880.207C322.804 879.898 321.493 879.582 321.601 879.186C321.735 878.997 321.851 878.384 322.039 878.238C322.204 878.111 322.282 878.488 322.478 878.396C322.843 878.238 323.182 877.217 323.644 876.998C323.833 877.053 323.991 876.701 324.519 877.144C324.641 877.248 324.842 877.569 324.957 877.727C325.127 877.951 325.467 878.693 325.625 878.736C326.11 878.887 326.025 878.413 326.122 878.311C326.238 878.177 326.273 878.591 326.414 877.873C326.499 877.435 327.058 877.302 327.435 877.435C327.617 877.496 328.133 878.243 328.675 877.885C329.252 877.508 331.159 874.252 331.438 873.493C332.081 871.767 331.947 870.091 330.928 868.535C331.068 868.335 331.214 868.141 331.366 867.953C331.409 867.898 331.616 867.875 331.64 867.717C331.743 867.103 330.801 867.316 332.095 866.203C332.484 865.869 332.623 865.857 332.97 865.621C333.984 864.923 335.042 864.576 335.301 863.289C335.325 863.18 335.502 863.034 335.447 862.851C335.198 862.869 334.962 862.851 334.719 862.778C334.337 862.655 331.626 861.594 331.506 861.472C331.329 861.29 331.36 861.033 331.366 860.809C330.911 860.687 331.142 861.234 330.723 861.247C330.303 861.261 329.21 860.609 328.743 860.439C328.585 860.385 327.904 860.3 327.722 860.227C327.413 860.104 327.054 859.929 326.701 859.788C324.921 859.084 323.135 858.093 321.307 857.457C321.805 857.232 322.449 857.287 322.991 857.305C323.634 857.329 324.169 857.834 324.223 856.874C323.756 856.813 323.111 856.539 322.729 856.285C321.545 855.514 318.386 850.021 317.998 848.594C317.432 846.498 318.337 842.229 318.538 839.89C319.103 833.353 319.4 826.738 320.433 820.28L320.141 820.426C320.256 819.533 319.952 818.179 320.202 817.359C320.226 817.274 321.253 815.987 321.331 815.937C321.508 815.841 321.824 815.949 321.883 815.907C321.907 815.888 321.756 815.671 321.775 815.567C321.817 815.367 324.205 812.906 324.575 812.554C325.176 811.977 325.935 811.479 326.477 810.81L326.696 811.248C326.835 810.355 327.736 809.681 328.372 809.061V809.103L328.366 809.11L328.352 809.101ZM286.622 820.839L287.697 818.154L287.588 818.427L286.622 820.839Z" fill="#E8EBED"/>
</g>
<defs>
<clipPath id="clip0_409_350">
<rect width="768" height="1048" fill="white" transform="translate(0 -73)"/>
</clipPath>
</defs>
</svg>
